if (_typeface_js && _typeface_js.loadFace) _typeface_js.loadFace({"glyphs":{"¦":{"x_min":80.5625,"x_max":229.1875,"ha":310,"o":"m 80 570 l 80 918 l 229 918 l 229 570 l 80 570 m 229 223 l 229 -122 l 80 -122 l 80 223 l 229 223 "},"̂":{"x_min":-419.5,"x_max":66.640625,"ha":0,"o":"m -86 1004 l 66 807 l -95 807 l -181 919 l -270 807 l -419 807 l -266 1004 l -86 1004 "},"Ž":{"x_min":31.953125,"x_max":868.125,"ha":900,"o":"m 361 1080 l 206 1277 l 362 1277 l 451 1165 l 541 1277 l 694 1277 l 541 1080 l 361 1080 m 563 808 l 73 808 l 73 991 l 854 991 l 854 819 l 322 183 l 868 183 l 868 0 l 31 0 l 31 172 l 563 808 "},"Á":{"x_min":-8.328125,"x_max":961.1875,"ha":951,"o":"m 370 1080 l 504 1277 l 722 1277 l 508 1080 l 370 1080 m 602 383 l 477 747 l 475 747 l 345 383 l 602 383 m 590 991 l 961 0 l 734 0 l 659 220 l 288 220 l 211 0 l -8 0 l 366 991 l 590 991 "},"Î":{"x_min":-37.5,"x_max":448.640625,"ha":410,"o":"m 295 1277 l 448 1080 l 286 1080 l 200 1193 l 111 1080 l -37 1080 l 115 1277 l 295 1277 m 313 991 l 313 0 l 95 0 l 95 991 l 313 991 "},"e":{"x_min":40.28125,"x_max":756.84375,"ha":797,"o":"m 558 436 q 509 550 544 511 q 401 588 473 588 q 322 572 354 588 q 272 533 291 556 q 246 483 254 509 q 237 436 238 456 l 558 436 l 558 436 m 237 311 q 286 172 241 215 q 413 129 330 129 q 516 159 473 129 q 569 222 559 188 l 743 222 q 615 37 701 93 q 406 -18 529 -18 q 254 9 322 -18 q 138 86 186 36 q 65 205 91 136 q 40 358 40 275 q 66 508 40 438 q 141 628 93 577 q 257 708 190 679 q 406 737 325 737 q 566 702 498 737 q 678 606 634 666 q 741 470 722 547 q 755 311 761 394 l 237 311 l 237 311 "},"»":{"x_min":58.34375,"x_max":558.375,"ha":617,"o":"m 276 284 l 58 111 l 58 277 l 183 377 l 58 476 l 58 643 l 276 472 l 276 284 m 558 284 l 340 111 l 340 277 l 465 377 l 340 476 l 340 643 l 558 472 l 558 284 "},"∆":{"x_min":18.0625,"x_max":832.015625,"ha":850,"o":"m 18 0 l 443 940 l 832 0 l 18 0 m 401 711 l 102 55 l 670 55 l 401 711 "},"ò":{"x_min":52.78125,"x_max":795.890625,"ha":849,"o":"m 395 1004 l 529 807 l 391 807 l 177 1004 l 395 1004 m 250 358 q 258 274 250 315 q 286 200 266 233 q 340 148 306 168 q 423 129 373 129 q 507 148 473 129 q 561 200 541 168 q 590 274 581 233 q 598 358 598 315 q 590 443 598 401 q 561 516 581 484 q 507 568 541 548 q 423 588 473 588 q 340 568 373 588 q 286 516 306 548 q 258 443 266 484 q 250 358 250 401 m 52 358 q 79 514 52 444 q 154 634 105 584 q 270 710 202 683 q 423 737 338 737 q 577 710 508 737 q 694 634 645 683 q 769 514 743 584 q 795 358 795 444 q 769 202 795 272 q 694 84 743 133 q 577 8 645 34 q 423 -18 508 -18 q 270 8 338 -18 q 154 84 202 34 q 79 202 105 133 q 52 358 52 272 "},"^":{"x_min":84.734375,"x_max":748.671875,"ha":833,"o":"m 509 972 l 748 437 l 586 437 l 416 819 l 247 437 l 84 437 l 323 972 l 509 972 "},"«":{"x_min":58.34375,"x_max":558.375,"ha":617,"o":"m 58 472 l 276 643 l 276 476 l 151 377 l 276 277 l 276 111 l 58 284 l 58 472 m 340 472 l 558 643 l 558 476 l 433 377 l 558 277 l 558 111 l 340 284 l 340 472 "},"í":{"x_min":75,"x_max":426.421875,"ha":358,"o":"m 75 807 l 208 1004 l 426 1004 l 212 807 l 75 807 m 277 718 l 277 0 l 80 0 l 80 718 l 277 718 "},"ˆ":{"x_min":-62.5,"x_max":423.640625,"ha":360,"o":"m 270 1004 l 423 807 l 261 807 l 175 919 l 86 807 l -62 807 l 90 1004 l 270 1004 "},"µ":{"x_min":75,"x_max":748.671875,"ha":824,"o":"m 561 0 l 561 100 l 556 100 q 513 47 537 69 q 463 10 488 25 q 416 -11 438 -4 q 376 -18 393 -18 q 309 -9 334 -18 q 272 13 284 0 l 272 -251 l 75 -251 l 75 718 l 272 718 l 272 312 q 300 179 272 223 q 398 136 327 136 q 515 184 479 136 q 551 341 551 231 l 551 718 l 748 718 l 748 0 l 561 0 "},"’":{"x_min":94.453125,"x_max":291.8125,"ha":386,"o":"m 291 991 l 291 779 q 278 693 293 733 q 237 622 263 652 q 174 571 211 591 q 94 545 137 551 l 94 637 q 166 691 147 655 q 186 777 186 726 l 94 777 l 94 991 l 291 991 "},"-":{"x_min":73.609375,"x_max":491.703125,"ha":565,"o":"m 491 463 l 491 294 l 73 294 l 73 463 l 491 463 "},"Q":{"x_min":52.78125,"x_max":1027.859375,"ha":1081,"o":"m 748 263 q 793 356 776 301 q 809 491 809 412 q 795 618 809 556 q 748 727 780 679 q 665 803 716 775 q 540 832 613 832 q 415 803 466 832 q 331 727 363 775 q 285 618 300 679 q 270 491 270 556 q 285 370 270 429 q 331 263 300 311 q 415 188 363 216 q 540 159 466 159 q 590 161 563 159 q 627 173 616 162 l 534 258 l 636 366 l 748 263 m 780 34 q 540 -22 682 -22 q 335 17 426 -22 q 181 126 244 56 q 86 289 119 195 q 52 491 52 383 q 86 697 52 602 q 181 863 119 793 q 335 975 244 934 q 540 1015 426 1015 q 745 975 655 1015 q 898 863 836 934 q 994 697 961 793 q 1027 491 1027 602 q 994 290 1027 383 q 898 126 961 197 l 1022 13 l 920 -91 l 780 34 "},"M":{"x_min":95.84375,"x_max":1163.984375,"ha":1260,"o":"m 402 991 l 634 309 l 637 309 l 857 991 l 1163 991 l 1163 0 l 959 0 l 959 702 l 957 702 l 713 0 l 545 0 l 302 695 l 300 695 l 300 0 l 95 0 l 95 991 l 402 991 "},"œ":{"x_min":52.78125,"x_max":1245.9375,"ha":1286,"o":"m 733 311 q 775 181 733 233 q 904 129 818 129 q 993 154 958 129 q 1048 227 1029 179 l 1240 227 q 1116 45 1205 109 q 904 -18 1026 -18 q 757 9 829 -18 q 644 102 686 36 q 596 46 625 69 q 534 9 568 23 q 463 -11 500 -5 q 390 -18 426 -18 q 243 12 306 -18 q 138 95 180 43 q 74 216 95 147 q 52 362 52 286 q 77 510 52 441 q 148 629 102 579 q 259 708 194 679 q 405 737 325 737 q 544 711 476 737 q 652 623 612 686 q 698 672 670 651 q 759 707 726 693 q 826 729 791 722 q 893 737 861 737 q 1055 702 988 737 q 1164 609 1122 668 q 1226 474 1207 551 q 1245 311 1245 397 l 733 311 l 733 311 m 402 129 q 483 150 452 129 q 531 206 513 172 q 554 281 548 240 q 561 361 561 322 q 555 437 561 397 q 533 511 550 477 q 486 566 516 544 q 406 588 456 588 q 331 568 361 588 q 283 513 301 547 q 257 438 265 480 q 250 355 250 397 q 256 278 250 318 q 281 205 263 238 q 329 150 300 172 q 402 129 358 129 m 1048 436 q 1007 547 1045 506 q 888 588 968 588 q 775 544 813 588 q 733 436 736 500 l 1048 436 l 1048 436 "},"{":{"x_min":-11.109375,"x_max":462.53125,"ha":463,"o":"m 387 859 q 347 850 362 859 q 325 825 333 840 q 314 793 316 811 q 312 758 312 775 l 312 547 q 296 464 312 495 q 259 416 280 433 q 213 391 237 398 q 175 383 190 384 l 175 379 q 213 370 190 377 q 259 345 237 362 q 296 299 280 327 q 312 226 312 270 l 312 4 q 314 -29 312 -11 q 325 -61 316 -47 q 347 -86 333 -76 q 387 -95 362 -95 l 462 -95 l 462 -251 l 286 -251 q 232 -239 262 -251 q 177 -204 202 -227 q 133 -146 151 -181 q 115 -63 115 -111 l 115 205 q 101 259 115 237 q 68 295 87 281 q 26 314 48 308 q -11 320 4 320 l -11 441 q 26 447 4 441 q 68 468 48 454 q 101 507 87 483 q 115 566 115 531 l 115 827 q 133 910 115 875 q 177 968 151 945 q 232 1003 202 991 q 286 1015 262 1015 l 462 1015 l 462 859 l 387 859 "},"¼":{"x_min":33.34375,"x_max":1169.53125,"ha":1239,"o":"m 954 434 l 795 234 l 957 234 l 957 434 l 954 434 m 690 123 l 690 252 l 951 583 l 1090 583 l 1090 234 l 1169 234 l 1169 123 l 1090 123 l 1090 0 l 957 0 l 957 123 l 690 123 m 186 379 l 186 759 l 33 759 l 33 863 q 96 868 66 862 q 150 886 126 873 q 190 922 175 900 q 211 979 206 945 l 327 979 l 327 379 l 186 379 m 904 1002 l 331 -29 l 211 -29 l 786 1002 l 904 1002 "},"#":{"x_min":45.84375,"x_max":726.453125,"ha":772,"o":"m 312 400 l 447 400 l 470 572 l 337 572 l 312 400 m 45 275 l 45 400 l 177 400 l 202 572 l 87 572 l 87 697 l 219 697 l 258 972 l 393 972 l 354 697 l 488 697 l 526 972 l 661 972 l 623 697 l 726 697 l 726 572 l 605 572 l 581 400 l 684 400 l 684 275 l 563 275 l 526 0 l 391 0 l 429 275 l 295 275 l 256 0 l 122 0 l 161 275 l 45 275 "},"":{"x_min":70.84375,"x_max":1040.359375,"ha":1097,"o":"m 566 816 q 665 840 594 816 q 786 863 736 863 q 934 819 869 863 q 970 788 952 805 q 1007 750 988 772 q 927 666 952 702 q 882 523 882 602 q 930 368 882 437 q 1040 280 977 300 q 1005 195 1026 238 q 955 106 984 151 q 776 -27 866 -27 q 677 -5 738 -27 q 573 15 618 15 q 473 -6 527 15 q 381 -30 415 -30 q 173 148 276 -30 q 70 498 70 326 q 148 758 70 657 q 347 858 227 858 q 470 837 398 858 q 566 816 544 816 m 779 1097 q 758 1001 779 1052 q 694 905 737 950 q 618 855 654 868 q 547 844 591 848 q 600 1023 548 947 q 775 1126 652 1098 q 778 1109 777 1116 q 779 1097 779 1102 "},"Ê":{"x_min":95.84375,"x_max":848.671875,"ha":900,"o":"m 541 1277 l 694 1080 l 531 1080 l 445 1193 l 356 1080 l 206 1080 l 361 1277 l 541 1277 m 837 991 l 837 808 l 313 808 l 313 595 l 794 595 l 794 426 l 313 426 l 313 183 l 848 183 l 848 0 l 95 0 l 95 991 l 837 991 "},")":{"x_min":-8.328125,"x_max":338.921875,"ha":411,"o":"m -8 -251 q 104 53 68 -104 q 141 375 141 211 q 105 702 141 541 q -6 1015 69 863 l 155 1015 q 291 712 243 872 q 338 388 338 552 q 327 225 338 311 q 293 56 316 140 q 236 -106 270 -27 q 155 -251 201 -186 l -8 -251 l -8 -251 "},"Å":{"x_min":-8.328125,"x_max":961.1875,"ha":951,"o":"m 305 1184 q 318 1251 305 1220 q 354 1304 331 1282 q 409 1341 377 1327 q 475 1354 440 1354 q 541 1341 511 1354 q 595 1304 572 1327 q 632 1251 619 1282 q 645 1184 645 1220 q 632 1118 645 1150 q 595 1064 619 1087 q 541 1028 572 1041 q 475 1015 511 1015 q 409 1028 440 1015 q 354 1064 377 1041 q 318 1118 331 1087 q 305 1184 305 1150 m 387 1184 q 411 1116 387 1144 q 475 1087 434 1087 q 539 1116 515 1087 q 563 1184 563 1144 q 539 1253 563 1225 q 475 1282 515 1282 q 411 1253 434 1282 q 387 1184 387 1225 m 602 383 l 477 747 l 475 747 l 345 383 l 602 383 m 590 991 l 961 0 l 734 0 l 659 220 l 288 220 l 211 0 l -8 0 l 366 991 l 590 991 "},"¸":{"x_min":16.671875,"x_max":351.421875,"ha":360,"o":"m 45 -204 q 97 -221 68 -213 q 162 -229 126 -229 q 202 -218 187 -229 q 218 -181 218 -206 q 202 -146 218 -155 q 162 -137 186 -137 q 106 -147 131 -137 l 77 -113 l 159 2 l 227 2 l 173 -72 l 176 -72 q 223 -65 193 -65 q 270 -70 247 -65 q 311 -88 293 -76 q 340 -118 329 -100 q 351 -162 351 -137 q 337 -229 351 -202 q 300 -272 323 -256 q 248 -295 277 -288 q 188 -301 219 -301 q 131 -299 155 -301 q 89 -293 108 -297 q 53 -283 70 -288 q 16 -270 36 -277 l 45 -204 l 45 -204 "},"a":{"x_min":44.453125,"x_max":744.5,"ha":797,"o":"m 66 497 q 101 612 70 566 q 179 686 131 658 q 285 725 226 713 q 404 737 344 737 q 513 729 458 737 q 615 700 569 722 q 690 638 661 677 q 719 533 719 598 l 719 159 q 725 66 719 111 q 744 0 730 22 l 544 0 q 535 34 538 16 q 530 69 531 51 q 419 1 483 20 q 288 -18 355 -18 q 193 -5 237 -18 q 115 33 148 6 q 63 100 81 59 q 44 195 44 140 q 65 296 44 256 q 121 359 87 336 q 199 395 155 383 q 287 413 243 406 q 375 425 331 420 q 451 437 418 429 q 504 461 484 445 q 522 508 523 477 q 511 559 522 540 q 484 588 501 577 q 443 602 466 598 q 394 605 420 605 q 302 580 336 605 q 263 497 269 555 l 66 497 l 66 497 m 522 351 q 491 334 509 340 q 450 323 472 327 q 405 316 429 319 q 358 309 381 313 q 314 298 336 305 q 277 279 293 291 q 251 250 261 268 q 241 204 241 231 q 251 159 241 177 q 277 131 261 141 q 316 116 294 120 q 362 112 338 112 q 452 131 420 112 q 500 178 484 151 q 518 233 515 205 q 522 277 522 261 l 522 351 l 522 351 "},"=":{"x_min":66.671875,"x_max":768.109375,"ha":833,"o":"m 66 127 l 66 276 l 768 276 l 768 127 l 66 127 m 66 425 l 66 573 l 768 573 l 768 425 l 66 425 "},"˚":{"x_min":9.71875,"x_max":350.03125,"ha":360,"o":"m 9 911 q 22 977 9 947 q 59 1031 36 1008 q 113 1067 81 1054 q 179 1080 144 1080 q 245 1067 215 1080 q 300 1031 276 1054 q 336 977 323 1008 q 350 911 350 947 q 336 845 350 876 q 300 791 323 813 q 245 754 276 768 q 179 741 215 741 q 113 754 144 741 q 59 791 81 768 q 22 845 36 813 q 9 911 9 876 m 91 911 q 115 842 91 870 q 179 813 138 813 q 243 842 219 813 q 268 911 268 870 q 243 979 268 951 q 179 1008 219 1008 q 115 979 138 1008 q 91 911 91 951 "},"ú":{"x_min":75,"x_max":748.671875,"ha":824,"o":"m 306 807 l 440 1004 l 658 1004 l 444 807 l 306 807 m 561 0 l 561 100 l 556 100 q 459 9 519 37 q 337 -18 400 -18 q 207 2 258 -18 q 127 61 156 23 q 86 154 98 100 q 75 276 75 209 l 75 718 l 272 718 l 272 312 q 300 179 272 223 q 398 136 327 136 q 515 184 479 136 q 551 341 551 231 l 551 718 l 748 718 l 748 0 l 561 0 "},"¯":{"x_min":-77.78125,"x_max":438.921875,"ha":360,"o":"m 438 959 l 438 855 l -77 855 l -77 959 l 438 959 "},"Z":{"x_min":31.953125,"x_max":868.125,"ha":900,"o":"m 563 808 l 73 808 l 73 991 l 854 991 l 854 819 l 322 183 l 868 183 l 868 0 l 31 0 l 31 172 l 563 808 "},"u":{"x_min":75,"x_max":748.671875,"ha":824,"o":"m 561 0 l 561 100 l 556 100 q 459 9 519 37 q 337 -18 400 -18 q 207 2 258 -18 q 127 61 156 23 q 86 154 98 100 q 75 276 75 209 l 75 718 l 272 718 l 272 312 q 300 179 272 223 q 398 136 327 136 q 515 184 479 136 q 551 341 551 231 l 551 718 l 748 718 l 748 0 l 561 0 "},"k":{"x_min":93.0625,"x_max":802.84375,"ha":797,"o":"m 290 991 l 290 459 l 538 718 l 772 718 l 501 454 l 802 0 l 563 0 l 366 320 l 290 247 l 290 0 l 93 0 l 93 991 l 290 991 "},"Ù":{"x_min":91.671875,"x_max":937.578125,"ha":1029,"o":"m 486 1277 l 619 1080 l 481 1080 l 268 1277 l 486 1277 m 937 375 q 825 75 937 173 q 513 -22 712 -22 q 202 75 312 -22 q 91 375 91 172 l 91 991 l 309 991 l 309 375 q 316 295 309 334 q 345 227 323 256 q 407 178 368 197 q 513 159 447 159 q 675 211 630 159 q 719 375 719 263 l 719 991 l 937 991 l 937 375 l 937 375 "},"¢":{"x_min":29.171875,"x_max":757,"ha":772,"o":"m 361 -18 q 225 15 286 -13 q 120 95 163 45 q 52 209 76 144 q 29 347 29 273 q 50 494 29 426 q 114 614 72 562 q 218 698 156 666 q 361 737 280 730 l 361 855 l 443 855 l 443 737 q 554 718 500 737 q 653 663 609 698 q 724 577 697 627 q 754 463 751 526 l 561 463 q 523 549 556 513 q 443 588 490 584 l 443 129 q 490 147 468 133 q 528 183 512 162 q 554 229 544 204 q 563 281 563 255 l 757 281 q 725 161 751 215 q 658 70 700 108 q 561 9 616 31 q 443 -18 506 -12 l 443 -158 l 361 -158 l 361 -18 l 361 -18 m 361 587 q 297 555 323 577 q 256 503 272 533 q 233 438 240 473 q 226 366 226 402 q 233 292 226 329 q 255 222 240 255 q 296 165 270 190 q 361 129 322 141 l 361 587 l 361 587 "},"é":{"x_min":40.28125,"x_max":756.84375,"ha":797,"o":"m 294 807 l 427 1004 l 645 1004 l 431 807 l 294 807 m 558 436 q 509 550 544 511 q 401 588 473 588 q 322 572 354 588 q 272 533 291 556 q 246 483 254 509 q 237 436 238 456 l 558 436 l 558 436 m 237 311 q 286 172 241 215 q 413 129 330 129 q 516 159 473 129 q 569 222 559 188 l 743 222 q 615 37 701 93 q 406 -18 529 -18 q 254 9 322 -18 q 138 86 186 36 q 65 205 91 136 q 40 358 40 275 q 66 508 40 438 q 141 628 93 577 q 257 708 190 679 q 406 737 325 737 q 566 702 498 737 q 678 606 634 666 q 741 470 722 547 q 755 311 761 394 l 237 311 l 237 311 "},"B":{"x_min":95.84375,"x_max":926.46875,"ha":978,"o":"m 534 590 q 630 618 593 590 q 668 708 668 645 q 655 765 668 743 q 622 800 643 787 q 574 817 601 812 q 518 822 547 822 l 313 822 l 313 590 l 534 590 m 562 991 q 691 979 633 991 q 791 938 750 966 q 856 862 833 909 q 879 745 879 815 q 845 620 879 670 q 744 538 811 570 q 881 446 836 512 q 926 287 926 380 q 897 157 926 212 q 818 68 868 102 q 706 16 769 33 q 576 0 643 0 l 95 0 l 95 991 l 562 991 m 547 169 q 608 175 579 169 q 659 196 637 181 q 695 236 682 211 q 708 300 708 261 q 665 409 708 376 q 551 441 622 441 l 313 441 l 313 169 l 547 169 "},"…":{"x_min":122.234375,"x_max":1265.375,"ha":1389,"o":"m 1265 213 l 1265 0 l 1047 0 l 1047 213 l 1265 213 m 802 213 l 802 0 l 584 0 l 584 213 l 802 213 m 340 213 l 340 0 l 122 0 l 122 213 l 340 213 "},"H":{"x_min":95.84375,"x_max":933.40625,"ha":1029,"o":"m 313 991 l 313 611 l 715 611 l 715 991 l 933 991 l 933 0 l 715 0 l 715 427 l 313 427 l 313 0 l 95 0 l 95 991 l 313 991 "},"î":{"x_min":-62.5,"x_max":423.640625,"ha":358,"o":"m 270 1004 l 423 807 l 261 807 l 175 919 l 86 807 l -62 807 l 90 1004 l 270 1004 m 277 718 l 277 0 l 80 0 l 80 718 l 277 718 "},"−":{"x_min":66.671875,"x_max":768.109375,"ha":833,"o":"m 768 425 l 768 276 l 66 276 l 66 425 l 768 425 "},"≠":{"x_min":16.671875,"x_max":745.890625,"ha":763,"o":"m 425 554 l 568 916 l 622 916 l 481 554 l 745 554 l 745 491 l 456 491 l 359 240 l 745 240 l 745 176 l 334 176 l 191 -180 l 137 -180 l 279 176 l 16 176 l 16 240 l 304 240 l 402 491 l 16 491 l 16 554 l 425 554 "},"¥":{"x_min":-11.109375,"x_max":801.453125,"ha":772,"o":"m 287 191 l 69 191 l 69 323 l 287 323 l 287 387 l 268 427 l 69 427 l 69 559 l 201 559 l -11 991 l 213 991 l 397 559 l 576 991 l 801 991 l 586 559 l 718 559 l 718 427 l 519 427 l 498 387 l 498 323 l 718 323 l 718 191 l 498 191 l 498 0 l 287 0 l 287 191 "},"U":{"x_min":91.671875,"x_max":937.578125,"ha":1029,"o":"m 937 375 q 825 75 937 173 q 513 -22 712 -22 q 202 75 312 -22 q 91 375 91 172 l 91 991 l 309 991 l 309 375 q 316 295 309 334 q 345 227 323 256 q 407 178 368 197 q 513 159 447 159 q 675 211 630 159 q 719 375 719 263 l 719 991 l 937 991 l 937 375 l 937 375 "},"Ñ":{"x_min":95.84375,"x_max":933.40625,"ha":1029,"o":"m 769 1265 q 753 1213 762 1241 q 727 1162 744 1186 q 682 1123 709 1138 q 613 1107 655 1107 q 554 1114 581 1107 q 500 1130 526 1122 q 450 1147 473 1140 q 402 1154 426 1154 q 363 1138 375 1154 q 344 1095 351 1122 l 259 1095 q 277 1156 266 1126 q 308 1210 288 1186 q 358 1250 327 1234 q 434 1265 388 1265 q 479 1257 458 1265 q 523 1241 501 1250 q 568 1224 545 1232 q 615 1216 591 1216 q 661 1231 647 1216 q 673 1265 675 1245 l 769 1265 l 769 1265 m 312 991 l 726 326 l 729 326 l 729 991 l 933 991 l 933 0 l 715 0 l 302 663 l 300 663 l 300 0 l 95 0 l 95 991 l 312 991 "},"F":{"x_min":95.84375,"x_max":793.125,"ha":824,"o":"m 793 991 l 793 808 l 313 808 l 313 579 l 729 579 l 729 409 l 313 409 l 313 0 l 95 0 l 95 991 l 793 991 "},"*":{"x_min":30.5625,"x_max":534.765625,"ha":565,"o":"m 497 879 l 534 772 l 370 718 l 473 581 l 381 513 l 279 657 l 181 513 l 88 581 l 191 718 l 30 772 l 68 879 l 225 818 l 225 991 l 336 991 l 336 818 l 497 879 "},"†":{"x_min":33.34375,"x_max":738.953125,"ha":772,"o":"m 33 555 l 33 718 l 291 718 l 291 991 l 479 991 l 479 718 l 738 718 l 738 555 l 479 555 l 479 -229 l 291 -229 l 291 555 l 33 555 "},"°":{"x_min":72.234375,"x_max":483.375,"ha":556,"o":"m 162 786 q 172 738 162 761 q 197 700 181 716 q 234 673 213 683 q 277 663 255 663 q 320 673 300 663 q 357 700 341 683 q 383 738 373 716 q 393 786 393 761 q 383 833 393 811 q 357 872 373 855 q 320 898 341 888 q 277 908 300 908 q 234 898 255 908 q 197 872 213 888 q 172 833 181 855 q 162 786 162 811 m 72 786 q 88 866 72 829 q 131 932 104 904 q 197 975 159 959 q 277 991 234 991 q 358 975 320 991 q 423 932 395 959 q 467 866 451 904 q 483 786 483 829 q 467 705 483 743 q 423 640 451 668 q 358 596 395 612 q 277 580 320 580 q 197 596 234 580 q 131 640 159 612 q 88 705 104 668 q 72 786 72 743 "},"å":{"x_min":44.453125,"x_max":744.5,"ha":797,"o":"m 229 911 q 242 977 229 947 q 278 1031 255 1008 q 332 1067 301 1054 q 398 1080 363 1080 q 465 1067 434 1080 q 519 1031 495 1054 q 556 977 543 1008 q 569 911 569 947 q 556 845 569 876 q 519 791 543 813 q 465 754 495 768 q 398 741 434 741 q 332 754 363 741 q 278 791 301 768 q 242 845 255 813 q 229 911 229 876 m 311 911 q 334 842 311 870 q 398 813 358 813 q 463 842 438 813 q 487 911 487 870 q 463 979 487 951 q 398 1008 438 1008 q 334 979 358 1008 q 311 911 311 951 m 66 497 q 101 612 70 566 q 179 686 131 658 q 285 725 226 713 q 404 737 344 737 q 513 729 458 737 q 615 700 569 722 q 690 638 661 677 q 719 533 719 598 l 719 159 q 725 66 719 111 q 744 0 730 22 l 544 0 q 535 34 538 16 q 530 69 531 51 q 419 1 483 20 q 288 -18 355 -18 q 193 -5 237 -18 q 115 33 148 6 q 63 100 81 59 q 44 195 44 140 q 65 296 44 256 q 121 359 87 336 q 199 395 155 383 q 287 413 243 406 q 375 425 331 420 q 451 437 418 429 q 504 461 484 445 q 522 508 523 477 q 511 559 522 540 q 484 588 501 577 q 443 602 466 598 q 394 605 420 605 q 302 580 336 605 q 263 497 269 555 l 66 497 l 66 497 m 522 351 q 491 334 509 340 q 450 323 472 327 q 405 316 429 319 q 358 309 381 313 q 314 298 336 305 q 277 279 293 291 q 251 250 261 268 q 241 204 241 231 q 251 159 241 177 q 277 131 261 141 q 316 116 294 120 q 362 112 338 112 q 452 131 420 112 q 500 178 484 151 q 518 233 515 205 q 522 277 522 261 l 522 351 l 522 351 "},"0":{"x_min":29.171875,"x_max":743.109375,"ha":772,"o":"m 226 490 q 229 389 226 448 q 246 275 231 330 q 293 181 261 220 q 384 143 325 143 q 478 181 445 143 q 525 275 511 220 q 543 389 540 330 q 545 490 545 448 q 545 550 545 515 q 539 623 544 586 q 525 697 534 661 q 498 763 516 734 q 452 811 480 793 q 384 829 425 829 q 317 811 344 829 q 272 763 290 793 q 245 697 255 734 q 231 623 236 661 q 227 550 227 586 q 226 490 226 515 m 29 490 q 57 728 29 632 q 134 883 86 825 q 247 966 183 941 q 384 991 312 991 q 522 966 458 991 q 636 883 587 941 q 714 728 686 825 q 743 490 743 632 q 714 246 743 344 q 636 90 686 148 q 522 6 587 31 q 384 -18 458 -18 q 247 6 312 -18 q 134 90 183 31 q 57 246 86 148 q 29 490 29 344 "},"”":{"x_min":75,"x_max":568.21875,"ha":643,"o":"m 272 991 l 272 779 q 259 693 273 733 q 218 622 244 652 q 154 571 191 591 q 75 545 118 551 l 75 637 q 147 691 127 655 q 166 777 166 726 l 75 777 l 75 991 l 272 991 m 568 991 l 568 779 q 554 693 569 733 q 513 622 540 652 q 450 571 487 591 q 370 545 413 551 l 370 637 q 443 691 423 655 q 462 777 462 726 l 370 777 l 370 991 l 568 991 "},"ö":{"x_min":52.78125,"x_max":795.890625,"ha":849,"o":"m 375 991 l 375 829 l 187 829 l 187 991 l 375 991 m 661 991 l 661 829 l 473 829 l 473 991 l 661 991 m 250 358 q 258 274 250 315 q 286 200 266 233 q 340 148 306 168 q 423 129 373 129 q 507 148 473 129 q 561 200 541 168 q 590 274 581 233 q 598 358 598 315 q 590 443 598 401 q 561 516 581 484 q 507 568 541 548 q 423 588 473 588 q 340 568 373 588 q 286 516 306 548 q 258 443 266 484 q 250 358 250 401 m 52 358 q 79 514 52 444 q 154 634 105 584 q 270 710 202 683 q 423 737 338 737 q 577 710 508 737 q 694 634 645 683 q 769 514 743 584 q 795 358 795 444 q 769 202 795 272 q 694 84 743 133 q 577 8 645 34 q 423 -18 508 -18 q 270 8 338 -18 q 154 84 202 34 q 79 202 105 133 q 52 358 52 272 "},"Õ":{"x_min":52.78125,"x_max":1027.859375,"ha":1081,"o":"m 795 1265 q 779 1213 788 1241 q 753 1162 770 1186 q 709 1123 736 1138 q 640 1107 682 1107 q 580 1114 608 1107 q 526 1130 552 1122 q 476 1147 500 1140 q 429 1154 452 1154 q 389 1138 401 1154 q 370 1095 377 1122 l 286 1095 q 304 1156 293 1126 q 334 1210 315 1186 q 384 1250 354 1234 q 461 1265 415 1265 q 506 1257 484 1265 q 550 1241 527 1250 q 595 1224 572 1232 q 641 1216 618 1216 q 687 1231 673 1216 q 700 1265 701 1245 l 795 1265 l 795 1265 m 270 491 q 285 370 270 429 q 331 263 300 311 q 415 188 363 216 q 540 159 466 159 q 665 188 613 159 q 748 263 716 216 q 795 370 780 311 q 809 491 809 429 q 795 618 809 556 q 748 727 780 679 q 665 803 716 775 q 540 832 613 832 q 415 803 466 832 q 331 727 363 775 q 285 618 300 679 q 270 491 270 556 m 52 491 q 86 697 52 602 q 181 863 119 793 q 335 975 244 934 q 540 1015 426 1015 q 745 975 655 1015 q 898 863 836 934 q 994 697 961 793 q 1027 491 1027 602 q 994 289 1027 383 q 898 126 961 195 q 745 17 836 56 q 540 -22 655 -22 q 335 17 426 -22 q 181 126 244 56 q 86 289 119 195 q 52 491 52 383 "},"þ":{"x_min":75,"x_max":805.625,"ha":849,"o":"m 608 356 q 599 441 608 400 q 569 516 590 483 q 516 568 548 548 q 436 588 483 588 q 354 568 387 588 q 302 516 322 548 q 273 443 281 484 q 265 356 265 401 q 274 272 265 313 q 303 199 283 230 q 356 148 323 168 q 437 129 390 129 q 518 148 486 129 q 571 199 551 168 q 600 272 591 230 q 608 356 608 313 m 272 991 l 272 626 l 275 626 q 365 711 311 684 q 479 737 419 737 q 625 705 563 737 q 726 620 686 673 q 786 497 766 568 q 805 351 805 427 q 786 212 805 279 q 727 94 766 145 q 628 12 687 43 q 490 -18 569 -18 q 367 9 423 -18 q 275 88 311 36 l 272 88 l 272 -251 l 75 -251 l 75 991 l 272 991 "},"]":{"x_min":1.390625,"x_max":368.078125,"ha":463,"o":"m 1 -251 l 1 -95 l 170 -95 l 170 859 l 1 859 l 1 1015 l 368 1015 l 368 -251 l 1 -251 "},"8":{"x_min":19.453125,"x_max":752.84375,"ha":772,"o":"m 238 708 q 283 613 238 645 q 387 580 327 580 q 491 613 450 580 q 533 708 533 645 q 527 750 533 727 q 506 794 522 773 q 461 829 490 815 q 387 843 433 843 q 331 834 358 843 q 283 808 304 825 q 250 766 262 791 q 238 708 238 741 m 59 726 q 88 841 59 791 q 164 925 118 891 q 269 975 211 958 q 387 991 327 991 q 540 963 477 991 q 641 896 602 936 q 695 811 679 857 q 712 730 712 766 q 677 604 712 658 q 570 526 641 550 l 570 523 q 705 441 658 504 q 752 286 752 377 q 721 151 752 208 q 638 56 690 94 q 522 0 587 19 q 388 -18 456 -18 q 252 0 318 -18 q 134 54 186 16 q 50 148 81 91 q 19 284 19 205 q 67 440 19 377 q 202 523 115 502 l 202 526 q 95 600 131 545 q 59 726 59 654 m 216 294 q 230 226 216 256 q 267 174 244 195 q 322 140 290 152 q 388 129 354 129 q 454 140 425 129 q 507 174 484 152 q 543 226 530 195 q 555 293 555 256 q 542 356 555 327 q 506 405 529 384 q 453 437 483 426 q 388 448 423 448 q 266 409 316 448 q 216 294 216 369 "},"R":{"x_min":95.84375,"x_max":950.078125,"ha":1003,"o":"m 552 543 q 665 576 627 543 q 702 684 702 609 q 665 789 702 757 q 552 822 627 822 l 313 822 l 313 543 l 552 543 m 630 991 q 750 970 697 991 q 842 911 804 948 q 900 824 880 873 q 920 718 920 775 q 884 566 920 630 q 763 469 847 502 l 763 466 q 830 432 804 455 q 873 378 857 409 q 897 309 890 347 q 908 234 905 272 q 911 179 909 211 q 916 113 912 147 q 927 50 919 80 q 950 0 934 20 l 732 0 q 709 112 713 47 q 697 237 705 177 q 650 351 686 315 q 531 387 613 387 l 313 387 l 313 0 l 95 0 l 95 991 l 630 991 "},"o":{"x_min":52.78125,"x_max":795.890625,"ha":849,"o":"m 250 358 q 258 274 250 315 q 286 200 266 233 q 340 148 306 168 q 423 129 373 129 q 507 148 473 129 q 561 200 541 168 q 590 274 581 233 q 598 358 598 315 q 590 443 598 401 q 561 516 581 484 q 507 568 541 548 q 423 588 473 588 q 340 568 373 588 q 286 516 306 548 q 258 443 266 484 q 250 358 250 401 m 52 358 q 79 514 52 444 q 154 634 105 584 q 270 710 202 683 q 423 737 338 737 q 577 710 508 737 q 694 634 645 683 q 769 514 743 584 q 795 358 795 444 q 769 202 795 272 q 694 84 743 133 q 577 8 645 34 q 423 -18 508 -18 q 270 8 338 -18 q 154 84 202 34 q 79 202 105 133 q 52 358 52 272 "},"5":{"x_min":25,"x_max":747.28125,"ha":772,"o":"m 293 809 l 254 588 l 256 586 q 343 643 297 626 q 447 661 388 661 q 575 634 519 661 q 668 563 630 608 q 727 459 707 519 q 747 330 747 398 q 718 190 747 255 q 639 79 688 126 q 525 6 590 31 q 386 -18 459 -19 q 250 0 315 -18 q 136 58 186 19 q 56 154 86 97 q 25 288 26 212 l 222 288 q 272 182 229 222 q 381 143 315 143 q 452 159 420 143 q 504 200 483 175 q 538 260 526 226 q 550 330 550 294 q 538 401 550 368 q 505 459 527 434 q 452 498 483 484 q 381 512 422 512 q 295 493 329 512 q 233 434 262 475 l 55 434 l 151 972 l 694 972 l 694 809 l 293 809 "},"̆":{"x_min":-409.78125,"x_max":56.921875,"ha":0,"o":"m -320 1009 q -302 963 -316 982 q -268 932 -288 944 q -226 916 -248 920 q -183 911 -204 911 q -81 934 -120 911 q -30 1009 -43 957 l 56 1009 q -21 854 43 901 q -190 807 -86 807 q -409 1009 -393 807 l -320 1009 l -320 1009 "},"õ":{"x_min":52.78125,"x_max":795.890625,"ha":849,"o":"m 679 991 q 663 940 672 968 q 636 888 654 912 q 592 849 619 865 q 523 833 565 833 q 463 841 491 833 q 409 857 436 848 q 359 873 383 866 q 312 880 336 880 q 272 864 284 880 q 254 822 261 848 l 169 822 q 187 882 176 852 q 218 936 198 912 q 268 976 237 961 q 344 991 298 991 q 389 984 368 991 q 433 968 411 976 q 478 950 455 958 q 525 943 501 943 q 570 957 556 943 q 583 991 584 972 l 679 991 l 679 991 m 250 358 q 258 274 250 315 q 286 200 266 233 q 340 148 306 168 q 423 129 373 129 q 507 148 473 129 q 561 200 541 168 q 590 274 581 233 q 598 358 598 315 q 590 443 598 401 q 561 516 581 484 q 507 568 541 548 q 423 588 473 588 q 340 568 373 588 q 286 516 306 548 q 258 443 266 484 q 250 358 250 401 m 52 358 q 79 514 52 444 q 154 634 105 584 q 270 710 202 683 q 423 737 338 737 q 577 710 508 737 q 694 634 645 683 q 769 514 743 584 q 795 358 795 444 q 769 202 795 272 q 694 84 743 133 q 577 8 645 34 q 423 -18 508 -18 q 270 8 338 -18 q 154 84 202 34 q 79 202 105 133 q 52 358 52 272 "},"̧":{"x_min":-340.328125,"x_max":-5.578125,"ha":0,"o":"m -311 -204 q -259 -221 -288 -213 q -194 -229 -230 -229 q -154 -218 -169 -229 q -138 -181 -138 -206 q -154 -146 -138 -155 q -194 -137 -170 -137 q -250 -147 -225 -137 l -279 -113 l -197 2 l -129 2 l -183 -72 l -180 -72 q -133 -65 -163 -65 q -86 -70 -109 -65 q -45 -88 -63 -76 q -16 -118 -27 -100 q -5 -162 -5 -137 q -19 -229 -5 -202 q -56 -272 -33 -256 q -108 -295 -79 -288 q -168 -301 -137 -301 q -225 -299 -201 -301 q -267 -293 -248 -297 q -303 -283 -286 -288 q -340 -270 -320 -277 l -311 -204 l -311 -204 "},",":{"x_min":84.734375,"x_max":302.796875,"ha":386,"o":"m 302 213 l 302 0 q 285 -86 302 -47 q 238 -155 268 -126 q 170 -203 209 -184 q 86 -229 130 -222 l 86 -129 q 125 -112 106 -125 q 158 -82 144 -100 q 179 -43 172 -65 q 184 0 186 -22 l 84 0 l 84 213 l 302 213 "},"d":{"x_min":44.453125,"x_max":775.0625,"ha":849,"o":"m 584 361 q 576 446 584 405 q 547 518 568 487 q 495 569 527 550 q 415 588 463 588 q 333 569 366 588 q 279 518 300 550 q 250 445 259 486 q 241 359 241 404 q 251 276 241 318 q 282 202 261 234 q 336 149 304 169 q 415 129 369 129 q 496 148 463 129 q 548 200 529 168 q 576 275 568 233 q 584 361 584 316 m 584 91 q 493 7 550 33 q 366 -18 437 -18 q 225 13 286 -18 q 124 97 163 44 q 64 220 84 151 q 44 365 44 290 q 64 504 44 437 q 124 623 84 572 q 223 706 163 675 q 362 737 283 737 q 484 710 426 737 q 575 630 541 683 l 577 630 l 577 991 l 775 991 l 775 0 l 587 0 l 587 91 l 584 91 "},"\"":{"x_min":118.0625,"x_max":525.046875,"ha":643,"o":"m 266 991 l 266 545 l 118 545 l 118 991 l 266 991 m 525 991 l 525 545 l 376 545 l 376 991 l 525 991 "},"˙":{"x_min":86.125,"x_max":273.640625,"ha":360,"o":"m 273 991 l 273 829 l 86 829 l 86 991 l 273 991 "},"ê":{"x_min":40.28125,"x_max":756.84375,"ha":797,"o":"m 490 1004 l 643 807 l 480 807 l 394 919 l 305 807 l 155 807 l 309 1004 l 490 1004 m 558 436 q 509 550 544 511 q 401 588 473 588 q 322 572 354 588 q 272 533 291 556 q 246 483 254 509 q 237 436 238 456 l 558 436 l 558 436 m 237 311 q 286 172 241 215 q 413 129 330 129 q 516 159 473 129 q 569 222 559 188 l 743 222 q 615 37 701 93 q 406 -18 529 -18 q 254 9 322 -18 q 138 86 186 36 q 65 205 91 136 q 40 358 40 275 q 66 508 40 438 q 141 628 93 577 q 257 708 190 679 q 406 737 325 737 q 566 702 498 737 q 678 606 634 666 q 741 470 722 547 q 755 311 761 394 l 237 311 l 237 311 "},"„":{"x_min":75,"x_max":568.21875,"ha":643,"o":"m 272 213 l 272 1 q 259 -82 273 -43 q 218 -153 244 -122 q 154 -204 191 -184 q 75 -230 118 -225 l 75 -138 q 147 -85 127 -120 q 166 0 166 -50 l 75 0 l 75 213 l 272 213 m 568 213 l 568 1 q 554 -82 569 -43 q 513 -153 540 -122 q 450 -204 487 -184 q 370 -230 413 -225 l 370 -138 q 443 -85 423 -120 q 462 0 462 -50 l 370 0 l 370 213 l 568 213 "},"Â":{"x_min":-8.328125,"x_max":961.1875,"ha":951,"o":"m 566 1277 l 719 1080 l 556 1080 l 470 1193 l 381 1080 l 231 1080 l 386 1277 l 566 1277 m 602 383 l 477 747 l 475 747 l 345 383 l 602 383 m 590 991 l 961 0 l 734 0 l 659 220 l 288 220 l 211 0 l -8 0 l 366 991 l 590 991 "},"Í":{"x_min":95.84375,"x_max":451.421875,"ha":410,"o":"m 100 1080 l 233 1277 l 451 1277 l 237 1080 l 100 1080 m 313 991 l 313 0 l 95 0 l 95 991 l 313 991 "},"´":{"x_min":75,"x_max":426.421875,"ha":360,"o":"m 75 807 l 208 1004 l 426 1004 l 212 807 l 75 807 "},"Ú":{"x_min":91.671875,"x_max":937.578125,"ha":1029,"o":"m 409 1080 l 543 1277 l 761 1277 l 547 1080 l 409 1080 m 937 375 q 825 75 937 173 q 513 -22 712 -22 q 202 75 312 -22 q 91 375 91 172 l 91 991 l 309 991 l 309 375 q 316 295 309 334 q 345 227 323 256 q 407 178 368 197 q 513 159 447 159 q 675 211 630 159 q 719 375 719 263 l 719 991 l 937 991 l 937 375 l 937 375 "},"Ý":{"x_min":-11.109375,"x_max":938.96875,"ha":926,"o":"m 358 1080 l 491 1277 l 709 1277 l 495 1080 l 358 1080 m -11 991 l 233 991 l 465 600 l 695 991 l 938 991 l 570 380 l 570 0 l 352 0 l 352 386 l -11 991 "},"Ω":{"x_min":48.609375,"x_max":1019.53125,"ha":1067,"o":"m 48 0 l 48 226 l 70 226 q 85 183 77 200 q 103 157 93 166 q 129 145 113 148 q 170 143 145 143 l 376 143 l 376 162 q 206 241 268 193 q 110 372 145 291 q 75 538 75 452 q 129 737 75 641 q 289 885 184 833 q 533 937 394 937 q 776 886 675 937 q 936 737 883 833 q 991 538 991 644 q 955 372 991 456 q 859 242 920 290 q 691 162 798 194 l 691 143 l 897 143 q 938 145 922 143 q 964 157 954 148 q 982 183 975 166 q 995 226 988 200 l 1019 226 l 1019 0 l 608 0 l 630 197 q 755 286 712 227 q 826 540 826 384 q 748 802 826 715 q 537 890 670 890 q 329 812 398 890 q 241 541 241 715 q 268 366 241 441 q 345 248 295 291 q 437 197 376 218 l 458 0 l 48 0 "},"Ö":{"x_min":52.78125,"x_max":1027.859375,"ha":1081,"o":"m 491 1265 l 491 1102 l 304 1102 l 304 1265 l 491 1265 m 777 1265 l 777 1102 l 590 1102 l 590 1265 l 777 1265 m 270 491 q 285 370 270 429 q 331 263 300 311 q 415 188 363 216 q 540 159 466 159 q 665 188 613 159 q 748 263 716 216 q 795 370 780 311 q 809 491 809 429 q 795 618 809 556 q 748 727 780 679 q 665 803 716 775 q 540 832 613 832 q 415 803 466 832 q 331 727 363 775 q 285 618 300 679 q 270 491 270 556 m 52 491 q 86 697 52 602 q 181 863 119 793 q 335 975 244 934 q 540 1015 426 1015 q 745 975 655 1015 q 898 863 836 934 q 994 697 961 793 q 1027 491 1027 602 q 994 289 1027 383 q 898 126 961 195 q 745 17 836 56 q 540 -22 655 -22 q 335 17 426 -22 q 181 126 244 56 q 86 289 119 195 q 52 491 52 383 "},"z":{"x_min":30.5625,"x_max":690.328125,"ha":721,"o":"m 404 569 l 58 569 l 58 718 l 663 718 l 663 569 l 290 148 l 690 148 l 690 0 l 30 0 l 30 148 l 404 569 "},"™":{"x_min":86.125,"x_max":1288.984375,"ha":1389,"o":"m 390 880 l 390 419 l 248 419 l 248 880 l 86 880 l 86 991 l 552 991 l 552 880 l 390 880 m 1155 419 l 1155 825 l 1152 825 l 1005 419 l 909 419 l 762 825 l 759 825 l 759 419 l 626 419 l 626 991 l 815 991 l 958 615 l 1101 991 l 1288 991 l 1288 419 l 1155 419 "},"ã":{"x_min":44.453125,"x_max":744.5,"ha":797,"o":"m 654 991 q 638 940 647 968 q 611 888 629 912 q 567 849 594 865 q 498 833 540 833 q 438 841 466 833 q 384 857 411 848 q 334 873 358 866 q 287 880 311 880 q 247 864 259 880 q 229 822 236 848 l 144 822 q 162 882 151 852 q 193 936 173 912 q 243 976 212 961 q 319 991 273 991 q 364 984 343 991 q 408 968 386 976 q 453 950 430 958 q 500 943 476 943 q 545 957 531 943 q 558 991 559 972 l 654 991 l 654 991 m 66 497 q 101 612 70 566 q 179 686 131 658 q 285 725 226 713 q 404 737 344 737 q 513 729 458 737 q 615 700 569 722 q 690 638 661 677 q 719 533 719 598 l 719 159 q 725 66 719 111 q 744 0 730 22 l 544 0 q 535 34 538 16 q 530 69 531 51 q 419 1 483 20 q 288 -18 355 -18 q 193 -5 237 -18 q 115 33 148 6 q 63 100 81 59 q 44 195 44 140 q 65 296 44 256 q 121 359 87 336 q 199 395 155 383 q 287 413 243 406 q 375 425 331 420 q 451 437 418 429 q 504 461 484 445 q 522 508 523 477 q 511 559 522 540 q 484 588 501 577 q 443 602 466 598 q 394 605 420 605 q 302 580 336 605 q 263 497 269 555 l 66 497 l 66 497 m 522 351 q 491 334 509 340 q 450 323 472 327 q 405 316 429 319 q 358 309 381 313 q 314 298 336 305 q 277 279 293 291 q 251 250 261 268 q 241 204 241 231 q 251 159 241 177 q 277 131 261 141 q 316 116 294 120 q 362 112 338 112 q 452 131 420 112 q 500 178 484 151 q 518 233 515 205 q 522 277 522 261 l 522 351 l 522 351 "},"æ":{"x_min":52.78125,"x_max":1219.546875,"ha":1260,"o":"m 1022 436 q 1012 500 1022 469 q 982 554 1002 530 q 934 591 962 577 q 868 605 905 605 q 800 591 830 605 q 750 554 770 577 q 718 500 729 530 q 707 436 707 469 l 1022 436 l 1022 436 m 707 311 q 716 240 705 276 q 750 176 727 204 q 804 130 772 148 q 877 112 836 112 q 977 142 944 112 q 1020 225 1011 172 l 1212 225 q 1165 121 1197 166 q 1090 45 1133 76 q 993 -2 1047 13 q 882 -18 940 -18 q 732 9 804 -18 q 613 102 659 37 q 554 46 588 69 q 482 9 520 23 q 402 -11 444 -5 q 320 -18 361 -18 q 221 -7 269 -18 q 136 27 173 2 q 75 93 98 52 q 52 194 52 134 q 73 295 52 255 q 128 359 94 334 q 205 395 162 383 q 293 413 248 406 q 401 430 355 423 q 477 446 447 437 q 520 470 506 455 q 534 513 534 486 q 523 559 534 541 q 494 588 512 577 q 453 602 476 598 q 406 605 430 605 q 310 581 348 605 q 269 494 272 556 l 72 494 q 104 609 75 562 q 181 684 134 655 q 288 725 227 712 q 411 737 348 737 q 476 732 443 737 q 541 716 509 727 q 601 686 573 705 q 648 640 629 668 q 745 713 690 688 q 888 737 801 737 q 1041 702 979 737 q 1143 607 1104 666 q 1201 471 1183 548 q 1219 311 1219 394 l 707 311 l 707 311 m 534 350 q 488 327 516 334 q 428 316 459 320 q 365 306 397 311 q 307 290 333 301 q 265 259 281 279 q 250 205 250 240 q 260 161 250 179 q 288 131 270 143 q 327 116 305 120 q 372 112 350 112 q 428 120 400 112 q 480 147 456 129 q 519 193 504 165 q 534 261 534 222 l 534 350 l 534 350 "},"É":{"x_min":95.84375,"x_max":848.671875,"ha":900,"o":"m 345 1080 l 479 1277 l 697 1277 l 483 1080 l 345 1080 m 837 991 l 837 808 l 313 808 l 313 595 l 794 595 l 794 426 l 313 426 l 313 183 l 848 183 l 848 0 l 95 0 l 95 991 l 837 991 "},"~":{"x_min":93.0625,"x_max":740.34375,"ha":833,"o":"m 740 348 q 708 304 725 326 q 670 266 691 283 q 624 239 650 250 q 566 229 598 229 q 493 242 527 229 q 425 275 459 255 q 352 309 391 294 q 265 323 313 323 q 225 314 243 323 q 192 291 206 305 q 167 259 177 277 q 148 223 156 241 l 93 352 q 119 396 104 375 q 156 434 134 418 q 204 461 177 451 q 266 472 231 472 q 341 459 302 472 q 420 427 380 445 q 497 394 459 411 q 562 377 534 377 q 600 386 583 377 q 632 409 618 395 q 659 441 647 423 q 684 477 672 459 l 740 348 l 740 348 "},"³":{"x_min":30.453125,"x_max":513.9375,"ha":544,"o":"m 227 741 q 270 742 247 741 q 313 749 293 743 q 346 768 333 755 q 359 807 359 782 q 333 861 359 841 q 273 880 306 880 q 204 851 229 880 q 180 780 179 822 l 47 780 q 109 934 50 877 q 272 991 168 991 q 353 981 313 991 q 424 949 393 970 q 474 895 455 927 q 493 820 493 863 q 470 745 493 779 q 401 701 447 712 l 401 698 q 484 652 454 688 q 513 568 513 616 q 494 480 513 518 q 442 417 475 443 q 366 379 409 391 q 273 366 322 366 q 94 423 161 366 q 30 588 27 480 l 163 588 q 192 511 166 544 q 270 477 218 477 q 342 502 312 477 q 372 565 372 526 q 358 611 372 594 q 322 634 344 627 q 276 643 301 641 q 227 644 251 644 l 227 741 l 227 741 "},"¡":{"x_min":84.734375,"x_max":302.796875,"ha":386,"o":"m 144 440 l 243 440 l 295 12 l 295 -252 l 90 -252 l 90 12 l 144 440 m 84 523 l 84 737 l 302 737 l 302 523 l 84 523 "},"[":{"x_min":94.453125,"x_max":461.140625,"ha":463,"o":"m 461 1015 l 461 859 l 291 859 l 291 -95 l 461 -95 l 461 -251 l 94 -251 l 94 1015 l 461 1015 "},"\u001d":{"x_min":0,"x_max":0,"ha":0},"%":{"x_min":104.171875,"x_max":1284.828125,"ha":1389,"o":"m 962 252 q 963 201 962 230 q 973 146 965 172 q 1000 102 982 120 q 1051 84 1018 84 q 1102 102 1083 84 q 1129 146 1120 120 q 1141 200 1138 172 q 1143 251 1143 229 q 1141 300 1143 272 q 1130 354 1138 329 q 1104 399 1122 380 q 1057 418 1087 418 q 1004 401 1023 418 q 976 359 986 384 q 964 305 966 334 q 962 252 962 276 m 820 254 q 834 359 820 311 q 877 444 848 408 q 951 501 907 480 q 1057 522 995 522 q 1165 500 1122 522 q 1235 442 1208 479 q 1273 355 1262 405 q 1284 248 1284 305 q 1270 143 1284 191 q 1228 58 1257 94 q 1155 2 1200 22 q 1050 -18 1111 -18 q 942 2 986 -18 q 871 60 898 23 q 832 147 844 97 q 820 254 820 197 m 1045 1002 l 473 -29 l 352 -29 l 927 1002 l 1045 1002 m 245 713 q 247 663 245 691 q 256 611 248 636 q 283 570 265 587 q 334 554 301 554 q 385 570 366 554 q 413 611 404 587 q 424 663 422 636 q 426 712 426 690 q 424 763 426 733 q 413 820 422 793 q 388 868 405 848 q 340 887 370 887 q 288 869 306 887 q 259 825 269 851 q 247 768 250 798 q 245 713 245 737 m 104 716 q 118 823 104 773 q 161 911 131 873 q 234 970 190 948 q 340 991 279 991 q 448 969 405 991 q 518 909 491 947 q 556 819 545 870 q 568 711 568 768 q 554 606 568 654 q 511 523 540 558 q 438 469 483 488 q 333 450 394 450 q 225 470 269 450 q 154 525 181 490 q 115 610 127 561 q 104 716 104 659 "},"P":{"x_min":95.84375,"x_max":886.1875,"ha":926,"o":"m 483 525 q 555 530 520 525 q 616 552 590 536 q 659 597 643 568 q 675 673 675 626 q 659 750 675 720 q 616 795 643 779 q 555 816 590 811 q 483 822 520 822 l 313 822 l 313 525 l 483 525 m 543 991 q 701 964 636 991 q 807 893 766 937 q 867 791 848 848 q 886 673 886 734 q 867 556 886 613 q 807 454 848 498 q 701 382 766 409 q 543 355 636 355 l 313 355 l 313 0 l 95 0 l 95 991 l 543 991 "},"∏":{"x_min":30.5625,"x_max":1112.59375,"ha":1143,"o":"m 301 909 l 301 -166 q 326 -248 301 -225 q 411 -272 351 -272 l 436 -272 l 436 -297 l 30 -297 l 30 -272 l 55 -272 q 140 -248 115 -272 q 165 -166 165 -225 l 165 833 q 140 913 165 888 q 55 937 115 937 l 30 937 l 30 962 l 1112 962 l 1112 937 l 1088 937 q 1004 913 1029 937 q 979 833 979 888 l 979 -166 q 1004 -248 979 -225 q 1088 -272 1029 -272 l 1112 -272 l 1112 -297 l 707 -297 l 707 -272 l 730 -272 q 815 -248 790 -272 q 840 -166 840 -225 l 840 909 l 301 909 "},"_":{"x_min":0,"x_max":694.5,"ha":695,"o":"m 694 -102 l 694 -172 l 0 -172 l 0 -102 l 694 -102 "},"ñ":{"x_min":75,"x_max":748.671875,"ha":824,"o":"m 666 991 q 650 940 659 968 q 624 888 641 912 q 579 849 607 865 q 511 833 552 833 q 451 841 479 833 q 397 857 423 848 q 347 873 370 866 q 300 880 323 880 q 260 864 272 880 q 241 822 248 848 l 156 822 q 175 882 163 852 q 205 936 186 912 q 255 976 225 961 q 331 991 286 991 q 377 984 355 991 q 420 968 398 976 q 466 950 443 958 q 512 943 488 943 q 558 957 544 943 q 570 991 572 972 l 666 991 l 666 991 m 262 718 l 262 618 l 266 618 q 363 709 304 680 q 486 737 423 737 q 616 716 565 737 q 695 656 666 694 q 736 563 725 618 q 748 441 748 508 l 748 0 l 551 0 l 551 405 q 523 538 551 494 q 425 581 495 581 q 308 534 344 581 q 272 376 272 486 l 272 0 l 75 0 l 75 718 l 262 718 "},"‚":{"x_min":94.453125,"x_max":291.8125,"ha":386,"o":"m 291 213 l 291 1 q 278 -82 293 -43 q 237 -153 263 -122 q 174 -204 211 -184 q 94 -230 137 -225 l 94 -138 q 166 -85 147 -120 q 186 0 186 -50 l 94 0 l 94 213 l 291 213 "},"Æ":{"x_min":-13.890625,"x_max":1311.21875,"ha":1363,"o":"m 1300 991 l 1300 808 l 838 808 l 838 595 l 1272 595 l 1272 426 l 838 426 l 838 183 l 1311 183 l 1311 0 l 627 0 l 627 220 l 316 220 l 216 0 l -13 0 l 458 991 l 1300 991 m 627 383 l 627 808 l 580 808 l 388 383 l 627 383 "},"ª":{"x_min":13.890625,"x_max":469.484375,"ha":478,"o":"m 27 840 q 54 915 34 886 q 104 961 75 944 q 169 984 133 977 q 244 991 205 991 q 318 986 280 991 q 385 968 355 982 q 434 931 415 955 q 452 868 452 907 l 452 637 q 469 533 452 565 l 329 533 q 323 554 326 544 q 319 576 320 565 q 247 532 288 544 q 169 520 206 520 q 59 553 104 520 q 13 659 13 586 q 27 722 13 698 q 63 761 41 747 q 114 783 86 776 q 172 794 143 790 q 231 800 204 798 q 277 807 258 802 q 309 821 297 812 q 320 847 320 830 q 296 892 320 883 q 237 901 272 901 q 193 886 213 901 q 169 840 172 872 l 27 840 l 27 840 m 319 743 q 275 725 304 729 q 226 718 247 722 q 176 700 197 711 q 155 662 155 688 q 177 621 155 632 q 218 611 198 611 q 272 621 252 611 q 303 647 293 632 q 316 680 313 662 q 319 715 319 698 l 319 743 l 319 743 "},"Œ":{"x_min":52.78125,"x_max":1459.84375,"ha":1518,"o":"m 747 622 q 731 707 747 669 q 686 773 715 745 q 618 816 658 801 q 533 832 579 832 q 411 802 461 832 q 329 724 361 772 q 284 616 298 676 q 270 493 270 555 q 284 372 270 431 q 329 265 298 312 q 410 188 361 218 q 529 159 459 159 q 688 222 629 159 q 747 386 747 284 l 747 622 l 747 622 m 752 75 q 644 2 708 26 q 513 -22 580 -22 q 318 19 404 -22 q 172 131 231 61 q 83 294 113 201 q 52 490 52 387 q 84 688 52 593 q 175 856 115 783 q 321 972 234 929 q 518 1015 408 1015 q 647 994 583 1015 q 752 920 711 973 l 755 920 l 755 991 l 1450 991 l 1450 808 l 958 808 l 958 595 l 1408 595 l 1408 426 l 958 426 l 958 183 l 1459 183 l 1459 0 l 755 0 l 755 75 l 752 75 "},"T":{"x_min":18.0625,"x_max":830.625,"ha":849,"o":"m 18 808 l 18 991 l 830 991 l 830 808 l 533 808 l 533 0 l 315 0 l 315 808 l 18 808 "},"š":{"x_min":40.28125,"x_max":705.609375,"ha":746,"o":"m 283 807 l 129 1004 l 284 1004 l 373 891 l 463 1004 l 616 1004 l 463 807 l 283 807 m 227 233 q 240 178 227 201 q 275 140 254 155 q 322 119 295 126 q 379 112 350 112 q 422 117 400 112 q 464 132 445 122 q 495 160 483 143 q 508 204 508 177 q 449 270 508 248 q 284 315 390 293 q 200 338 241 325 q 127 372 159 351 q 76 427 95 394 q 56 506 56 459 q 84 620 56 576 q 155 691 111 665 q 255 727 200 716 q 369 737 311 737 q 482 726 427 737 q 580 688 537 715 q 652 618 623 662 q 686 508 680 575 l 498 508 q 455 585 494 565 q 363 605 416 605 q 327 603 347 605 q 292 594 308 601 q 265 574 276 587 q 254 538 254 561 q 273 495 254 512 q 324 468 293 479 q 395 450 355 458 q 477 431 436 441 q 561 408 520 422 q 634 371 602 394 q 686 314 666 348 q 705 230 705 280 q 677 111 705 159 q 602 34 648 63 q 497 -6 556 5 q 377 -18 438 -18 q 255 -5 315 -18 q 149 36 195 6 q 72 113 102 65 q 40 233 43 161 l 227 233 l 227 233 "},"Þ":{"x_min":95.84375,"x_max":886.1875,"ha":926,"o":"m 483 390 q 555 395 520 390 q 616 417 590 401 q 659 462 643 433 q 675 538 675 491 q 659 615 675 586 q 616 660 643 644 q 555 682 590 676 q 483 687 520 687 l 313 687 l 313 390 l 483 390 m 313 991 l 313 857 l 543 857 q 701 829 636 857 q 807 758 766 802 q 867 657 848 713 q 886 538 886 600 q 867 421 886 479 q 807 319 848 363 q 701 247 766 275 q 543 220 636 220 l 313 220 l 313 0 l 95 0 l 95 991 l 313 991 "},"j":{"x_min":-25,"x_max":290.296875,"ha":386,"o":"m 93 829 l 93 991 l 290 991 l 290 829 l 93 829 m -25 -83 q 16 -88 -9 -88 q 70 -77 47 -88 q 93 -25 93 -65 l 93 718 l 290 718 l 290 -34 q 278 -130 290 -90 q 238 -197 266 -170 q 161 -238 209 -225 q 37 -251 112 -251 q -25 -245 2 -251 l -25 -83 l -25 -83 "},"1":{"x_min":102.78125,"x_max":544.484375,"ha":772,"o":"m 347 0 l 347 630 l 102 630 l 102 779 q 202 786 154 777 q 288 818 250 795 q 352 879 326 841 q 387 972 379 916 l 544 972 l 544 0 l 347 0 "},"›":{"x_min":58.34375,"x_max":276.40625,"ha":335,"o":"m 276 284 l 58 111 l 58 277 l 183 377 l 58 476 l 58 643 l 276 472 l 276 284 "},"<":{"x_min":63.890625,"x_max":769.5,"ha":833,"o":"m 259 351 l 769 148 l 769 -9 l 63 269 l 63 433 l 769 713 l 769 554 l 259 351 "},"t":{"x_min":8.328125,"x_max":469.484375,"ha":489,"o":"m 469 718 l 469 586 l 325 586 l 325 230 q 341 163 325 180 q 408 147 358 147 q 440 148 425 147 q 469 152 455 150 l 469 0 q 413 -5 444 -4 q 354 -6 383 -6 q 267 0 308 -6 q 195 23 226 5 q 145 75 163 41 q 127 162 127 108 l 127 586 l 8 586 l 8 718 l 127 718 l 127 933 l 325 933 l 325 718 l 469 718 "},"¬":{"x_min":66.671875,"x_max":766.734375,"ha":833,"o":"m 618 137 l 618 415 l 66 415 l 66 563 l 766 563 l 766 137 l 618 137 "},"ù":{"x_min":75,"x_max":748.671875,"ha":824,"o":"m 383 1004 l 516 807 l 379 807 l 165 1004 l 383 1004 m 561 0 l 561 100 l 556 100 q 459 9 519 37 q 337 -18 400 -18 q 207 2 258 -18 q 127 61 156 23 q 86 154 98 100 q 75 276 75 209 l 75 718 l 272 718 l 272 312 q 300 179 272 223 q 398 136 327 136 q 515 184 479 136 q 551 341 551 231 l 551 718 l 748 718 l 748 0 l 561 0 "},"ï":{"x_min":-55.5625,"x_max":416.703125,"ha":358,"o":"m 130 991 l 130 829 l -55 829 l -55 991 l 130 991 m 416 991 l 416 829 l 229 829 l 229 991 l 416 991 m 277 718 l 277 0 l 80 0 l 80 718 l 277 718 "},"Ò":{"x_min":52.78125,"x_max":1027.859375,"ha":1081,"o":"m 512 1277 l 645 1080 l 508 1080 l 294 1277 l 512 1277 m 270 491 q 285 370 270 429 q 331 263 300 311 q 415 188 363 216 q 540 159 466 159 q 665 188 613 159 q 748 263 716 216 q 795 370 780 311 q 809 491 809 429 q 795 618 809 556 q 748 727 780 679 q 665 803 716 775 q 540 832 613 832 q 415 803 466 832 q 331 727 363 775 q 285 618 300 679 q 270 491 270 556 m 52 491 q 86 697 52 602 q 181 863 119 793 q 335 975 244 934 q 540 1015 426 1015 q 745 975 655 1015 q 898 863 836 934 q 994 697 961 793 q 1027 491 1027 602 q 994 289 1027 383 q 898 126 961 195 q 745 17 836 56 q 540 -22 655 -22 q 335 17 426 -22 q 181 126 244 56 q 86 289 119 195 q 52 491 52 383 "},"&":{"x_min":44.453125,"x_max":966.75,"ha":951,"o":"m 644 98 q 517 11 584 40 q 365 -18 450 -18 q 239 1 298 -18 q 137 59 180 20 q 69 152 94 97 q 44 277 44 206 q 62 374 44 330 q 111 453 80 418 q 183 516 143 488 q 266 565 223 544 q 199 662 226 613 q 172 776 172 711 q 193 869 172 827 q 251 941 215 911 q 334 986 287 970 q 430 1002 380 1002 q 536 987 487 1002 q 622 942 586 972 q 681 868 659 912 q 702 765 702 823 q 652 618 702 677 q 526 518 601 558 l 654 361 q 677 418 669 388 q 690 479 686 448 l 861 479 q 830 350 854 412 q 765 234 807 287 l 966 0 l 725 0 l 644 98 l 644 98 m 370 437 q 319 411 344 426 q 275 375 294 395 q 243 329 255 354 q 231 273 231 304 q 243 222 231 247 q 275 181 255 198 q 320 153 294 163 q 373 143 345 143 q 466 167 426 143 q 540 230 505 191 l 370 437 l 370 437 m 530 776 q 503 843 530 815 q 440 870 476 870 q 377 846 404 870 q 351 783 351 822 q 376 702 351 736 q 429 634 401 669 q 500 691 470 661 q 530 776 530 722 "},"˝":{"x_min":-76.390625,"x_max":554.21875,"ha":360,"o":"m 209 807 l 336 1004 l 554 1004 l 347 807 l 209 807 m -76 807 l 48 1004 l 266 1004 l 59 807 l -76 807 "},"I":{"x_min":95.84375,"x_max":313.90625,"ha":410,"o":"m 313 991 l 313 0 l 95 0 l 95 991 l 313 991 "},"G":{"x_min":52.78125,"x_max":973.6875,"ha":1054,"o":"m 812 112 q 683 7 754 37 q 540 -22 612 -22 q 335 17 426 -22 q 181 126 244 56 q 86 289 119 195 q 52 491 52 383 q 86 697 52 602 q 181 863 119 793 q 335 975 244 934 q 540 1015 426 1015 q 688 992 616 1015 q 817 925 759 969 q 912 815 875 880 q 958 665 950 750 l 750 665 q 675 790 730 748 q 540 832 619 832 q 415 803 466 832 q 331 727 363 775 q 285 618 300 679 q 270 491 270 556 q 285 370 270 429 q 331 263 300 311 q 415 188 363 216 q 540 159 466 159 q 707 214 648 159 q 776 373 766 269 l 556 373 l 556 536 l 973 536 l 973 0 l 834 0 l 812 112 l 812 112 "},"`":{"x_min":-65.28125,"x_max":284.75,"ha":360,"o":"m 151 1004 l 284 807 l 147 807 l -65 1004 l 151 1004 "},"·":{"x_min":76.390625,"x_max":311.140625,"ha":386,"o":"m 76 398 q 111 482 76 448 q 194 516 147 516 q 238 507 218 516 q 275 482 259 498 q 301 445 291 466 q 311 398 311 423 q 301 355 311 376 q 276 318 291 334 q 240 291 261 301 q 195 281 219 281 q 149 291 170 281 q 111 316 127 300 q 86 353 95 331 q 76 398 76 375 "},"¿":{"x_min":44.453125,"x_max":725.0625,"ha":772,"o":"m 286 523 l 286 737 l 504 737 l 504 523 l 286 523 m 725 70 q 699 -65 723 -2 q 631 -173 675 -127 q 526 -245 587 -219 q 390 -270 465 -270 q 226 -243 293 -270 q 119 -176 159 -216 q 61 -89 79 -136 q 44 -2 44 -43 q 61 105 44 62 q 105 179 79 148 q 162 230 131 209 q 221 273 193 251 q 270 323 250 295 q 297 393 291 351 l 297 445 l 484 445 l 484 383 q 461 283 480 323 q 418 214 443 243 q 365 165 393 186 q 313 123 337 144 q 275 77 290 102 q 262 15 261 52 q 293 -77 262 -47 q 380 -108 325 -108 q 443 -93 416 -108 q 486 -54 469 -79 q 512 2 504 -30 q 520 70 520 34 l 725 70 l 725 70 "},"ý":{"x_min":-6.9375,"x_max":729.21875,"ha":721,"o":"m 255 807 l 388 1004 l 607 1004 l 393 807 l 255 807 m 429 -88 q 340 -213 397 -176 q 181 -251 283 -251 q 121 -249 151 -251 q 61 -244 91 -247 l 61 -81 q 118 -87 88 -84 q 176 -88 147 -90 q 234 -58 215 -84 q 252 0 252 -31 q 244 44 252 23 l -6 718 l 202 718 l 365 226 l 368 226 l 525 718 l 729 718 l 429 -88 l 429 -88 "},"º":{"x_min":16.671875,"x_max":493.09375,"ha":510,"o":"m 165 755 q 170 709 165 733 q 186 667 175 686 q 213 636 197 648 q 254 625 230 625 q 295 636 277 625 q 323 667 312 648 q 339 709 334 686 q 344 755 344 733 q 339 802 344 779 q 323 845 334 826 q 295 875 312 863 q 254 887 277 887 q 213 875 230 887 q 186 845 197 863 q 170 802 175 826 q 165 755 165 779 m 16 755 q 81 928 16 865 q 254 991 145 991 q 427 928 362 991 q 493 755 493 865 q 427 583 493 645 q 254 520 362 520 q 81 583 145 520 q 16 755 16 645 "},"∞":{"x_min":36.109375,"x_max":954.25,"ha":990,"o":"m 443 452 q 543 598 488 559 q 694 640 600 640 q 879 561 802 640 q 954 356 954 484 q 880 152 954 234 q 716 72 808 72 q 591 122 650 72 q 488 266 554 154 q 393 145 444 181 q 268 108 341 108 q 104 177 170 108 q 36 358 36 245 q 98 538 36 470 q 244 607 161 607 q 347 576 304 607 q 443 452 390 547 m 508 315 q 557 226 533 261 q 607 171 581 191 q 661 143 633 151 q 719 136 688 136 q 797 152 761 136 q 859 196 833 168 q 900 265 884 225 q 915 356 915 306 q 855 522 915 458 q 723 587 797 587 q 641 563 676 587 q 579 487 607 540 q 508 315 559 452 m 423 400 q 347 510 390 475 q 241 545 304 545 q 175 532 206 545 q 122 495 144 519 q 86 436 100 470 q 73 359 73 401 q 120 215 73 266 q 229 161 169 161 q 343 219 293 161 q 423 400 375 256 "},"\b":{"x_min":0,"x_max":0,"ha":0},";":{"x_min":84.734375,"x_max":302.796875,"ha":386,"o":"m 84 491 l 84 705 l 302 705 l 302 491 l 84 491 m 302 213 l 302 0 q 285 -86 302 -47 q 238 -155 268 -126 q 170 -203 209 -184 q 86 -229 130 -222 l 86 -129 q 125 -112 106 -125 q 158 -82 144 -100 q 179 -43 172 -65 q 184 0 186 -22 l 84 0 l 84 213 l 302 213 "},"6":{"x_min":29.171875,"x_max":743.109375,"ha":772,"o":"m 397 504 q 328 489 358 504 q 279 450 298 475 q 250 392 259 425 q 240 323 240 359 q 250 257 240 290 q 281 199 261 225 q 330 158 301 173 q 397 143 359 143 q 460 158 433 143 q 506 198 487 173 q 536 255 526 223 q 545 320 545 287 q 536 388 545 355 q 509 446 527 420 q 463 488 491 472 q 397 504 434 504 m 538 722 q 494 807 529 770 q 408 843 459 843 q 320 811 355 843 q 263 735 284 780 q 233 638 243 690 q 222 547 223 587 l 225 544 q 319 627 265 602 q 444 652 373 652 q 566 625 506 652 q 668 552 626 598 q 725 451 707 508 q 743 336 743 394 q 718 196 743 261 q 649 84 694 131 q 541 9 604 36 q 402 -18 479 -18 q 220 25 293 -18 q 105 140 148 69 q 45 300 62 211 q 29 483 29 390 q 50 663 29 573 q 116 827 70 754 q 234 945 162 900 q 411 991 306 991 q 527 973 473 991 q 623 921 581 955 q 691 837 665 887 q 726 722 718 787 l 538 722 l 538 722 "},"n":{"x_min":75,"x_max":748.671875,"ha":824,"o":"m 262 718 l 262 618 l 266 618 q 363 709 304 680 q 486 737 423 737 q 616 716 565 737 q 695 656 666 694 q 736 563 725 618 q 748 441 748 508 l 748 0 l 551 0 l 551 405 q 523 538 551 494 q 425 581 495 581 q 308 534 344 581 q 272 376 272 486 l 272 0 l 75 0 l 75 718 l 262 718 "},"̸":{"x_min":-526.890625,"x_max":17.59375,"ha":0,"o":"m 17 1015 l -369 -22 l -526 -22 l -140 1015 l 17 1015 "},"¤":{"x_min":27.78125,"x_max":744.5,"ha":772,"o":"m 388 682 q 312 665 345 682 q 256 621 279 648 q 223 559 234 594 q 212 484 212 523 q 223 411 212 447 q 256 349 234 376 q 311 306 279 322 q 387 290 344 290 q 462 306 430 290 q 515 351 494 323 q 546 414 536 379 q 556 487 556 450 q 546 559 556 523 q 515 621 536 594 q 462 665 494 648 q 388 682 430 682 m 106 287 q 40 484 40 365 q 56 596 40 543 q 106 684 72 650 l 27 765 l 106 844 l 186 766 q 275 813 220 795 q 388 830 330 830 q 495 813 444 830 q 579 768 547 795 l 659 847 l 744 762 l 666 686 q 713 599 697 652 q 729 487 729 545 q 713 376 729 429 q 665 284 697 323 l 741 206 l 665 130 l 586 211 q 498 159 551 177 q 387 141 445 141 q 272 159 325 141 q 183 209 219 176 l 105 129 l 27 206 l 106 287 l 106 287 "},"∂":{"x_min":43.0625,"x_max":675.125,"ha":686,"o":"m 630 486 q 635 556 633 525 q 637 612 637 587 q 573 801 637 734 q 404 868 509 868 q 284 841 331 868 q 200 759 236 813 l 168 759 q 281 916 220 868 q 426 963 341 963 q 517 944 472 962 q 597 886 562 926 q 654 782 633 847 q 675 623 676 718 q 570 193 675 383 q 273 -19 452 -19 q 105 40 168 -19 q 43 205 43 101 q 61 324 43 266 q 110 430 80 381 q 179 516 140 479 q 261 575 219 554 q 418 615 338 615 q 518 594 473 615 q 593 543 563 573 q 630 486 612 523 m 618 426 q 539 540 591 501 q 423 579 487 579 q 302 536 362 579 q 201 388 244 494 q 158 177 158 286 q 195 59 158 101 q 290 18 231 18 q 461 105 373 18 q 618 426 570 216 "},"p":{"x_min":75,"x_max":805.625,"ha":849,"o":"m 437 129 q 518 148 486 129 q 571 199 551 168 q 600 272 591 230 q 608 356 608 313 q 599 441 608 400 q 569 516 590 483 q 516 568 548 548 q 436 588 483 588 q 354 568 387 588 q 302 516 322 548 q 273 443 281 484 q 265 356 265 401 q 274 272 265 313 q 303 199 283 230 q 356 148 323 168 q 437 129 390 129 m 262 718 l 262 626 l 265 626 q 356 711 301 684 q 479 737 412 737 q 625 705 563 737 q 726 620 686 673 q 786 497 766 568 q 805 351 805 427 q 786 212 805 279 q 727 94 766 145 q 628 12 687 43 q 490 -18 569 -18 q 367 9 423 -18 q 275 88 311 36 l 272 88 l 272 -251 l 75 -251 l 75 718 l 262 718 "},"‡":{"x_min":33.34375,"x_max":738.953125,"ha":772,"o":"m 33 37 l 33 200 l 291 200 l 291 555 l 33 555 l 33 718 l 291 718 l 291 991 l 479 991 l 479 718 l 738 718 l 738 555 l 479 555 l 479 200 l 738 200 l 738 37 l 479 37 l 479 -229 l 291 -229 l 291 37 l 33 37 "},"√":{"x_min":56.953125,"x_max":761.171875,"ha":763,"o":"m 761 1268 l 550 -51 l 213 638 l 79 577 l 56 620 l 259 723 l 534 165 l 711 1268 l 761 1268 "},"S":{"x_min":33.296875,"x_max":868.125,"ha":901,"o":"m 244 329 q 262 244 244 279 q 310 188 280 209 q 380 156 340 166 q 463 145 420 145 q 526 150 493 145 q 588 169 559 155 q 637 207 618 183 q 657 269 657 231 q 631 334 657 309 q 563 376 605 359 q 469 405 522 393 q 362 433 416 418 q 254 467 306 447 q 159 519 201 487 q 92 599 118 551 q 66 715 66 647 q 99 847 66 791 q 184 941 131 904 q 304 997 237 979 q 437 1015 370 1015 q 586 998 515 1015 q 713 941 658 980 q 802 842 769 902 q 834 695 834 782 l 623 695 q 604 769 620 740 q 562 815 588 798 q 502 838 536 832 q 427 845 468 845 q 375 840 401 845 q 327 820 348 834 q 291 786 305 807 q 277 733 277 765 q 288 686 277 704 q 332 652 300 668 q 422 622 365 637 q 573 583 480 607 q 650 563 601 577 q 748 516 700 548 q 832 431 797 484 q 868 294 868 377 q 841 168 868 226 q 763 67 815 109 q 634 1 711 25 q 455 -22 556 -22 q 296 -2 373 -22 q 160 61 219 18 q 66 170 101 104 q 33 329 31 237 l 244 329 l 244 329 "},"/":{"x_min":-13.890625,"x_max":530.59375,"ha":515,"o":"m 530 1015 l 143 -22 l -13 -22 l 372 1015 l 530 1015 "},"̨":{"x_min":-344.5,"x_max":-9.75,"ha":0,"o":"m -9 -206 q -100 -280 -51 -259 q -195 -301 -148 -301 q -233 -298 -208 -301 q -283 -283 -258 -295 q -326 -245 -308 -270 q -344 -176 -344 -220 q -341 -150 -344 -166 q -323 -110 -338 -133 q -276 -58 -308 -87 q -186 4 -244 -29 l -95 4 q -186 -95 -162 -55 q -211 -170 -211 -134 q -194 -204 -211 -191 q -156 -218 -177 -218 q -115 -210 -134 -218 q -76 -176 -95 -202 l -9 -206 l -9 -206 "},"y":{"x_min":-6.9375,"x_max":729.21875,"ha":721,"o":"m 429 -88 q 340 -213 397 -176 q 181 -251 283 -251 q 121 -249 151 -251 q 61 -244 91 -247 l 61 -81 q 118 -87 88 -84 q 176 -88 147 -90 q 234 -58 215 -84 q 252 0 252 -31 q 244 44 252 23 l -6 718 l 202 718 l 365 226 l 368 226 l 525 718 l 729 718 l 429 -88 l 429 -88 "},"̋":{"x_min":-433.390625,"x_max":197.21875,"ha":0,"o":"m -147 807 l -20 1004 l 197 1004 l -9 807 l -147 807 m -433 807 l -308 1004 l -90 1004 l -297 807 l -433 807 "},"≈":{"x_min":20.828125,"x_max":743.109375,"ha":763,"o":"m 743 704 q 693 568 740 616 q 579 519 645 519 q 511 529 541 519 q 446 552 493 534 q 325 601 400 570 q 175 644 222 644 q 95 614 127 644 q 50 520 62 584 l 20 520 q 34 598 20 565 q 69 655 47 632 q 120 691 91 679 q 177 705 148 704 q 237 695 209 705 q 322 668 273 686 q 434 622 370 650 q 495 597 469 607 q 541 581 522 587 q 586 577 561 577 q 672 609 637 577 q 713 704 707 641 l 743 704 l 743 704 m 743 370 q 693 234 740 283 q 579 184 645 184 q 476 205 547 184 l 325 268 q 175 311 222 311 q 95 281 127 311 q 50 186 62 252 l 20 186 q 34 266 20 231 q 68 322 47 300 q 118 358 90 345 q 176 372 145 370 q 237 363 206 372 q 434 288 304 344 q 495 264 468 273 q 541 250 522 255 q 586 244 556 244 q 672 276 637 244 q 713 370 707 308 l 743 370 l 743 370 "},"g":{"x_min":52.78125,"x_max":765.34375,"ha":849,"o":"m 409 169 q 483 186 451 169 q 536 230 515 202 q 567 293 556 258 q 577 368 577 329 q 569 452 577 412 q 541 522 561 491 q 490 570 522 552 q 409 588 458 588 q 338 572 368 588 q 288 527 308 555 q 259 461 268 498 q 250 384 250 425 q 257 307 250 345 q 284 238 265 269 q 333 188 302 208 q 409 169 363 169 m 765 45 q 753 -52 765 2 q 702 -156 741 -108 q 590 -237 663 -204 q 393 -270 516 -270 q 285 -257 340 -270 q 185 -216 230 -244 q 110 -145 140 -188 q 76 -40 80 -101 l 272 -40 q 326 -117 286 -95 q 419 -138 366 -138 q 541 -88 502 -138 q 577 37 579 -38 l 577 131 l 575 131 q 484 47 543 75 q 359 20 425 20 q 220 49 279 20 q 125 127 162 77 q 70 242 87 176 q 52 381 52 308 q 72 516 52 451 q 131 629 93 580 q 228 708 170 679 q 361 737 286 737 q 485 711 431 737 q 575 622 538 684 l 577 622 l 577 718 l 765 718 l 765 45 l 765 45 "},"²":{"x_min":37.5,"x_max":506.984375,"ha":544,"o":"m 38 750 q 100 924 37 857 q 290 991 162 991 q 373 979 334 991 q 442 944 412 968 q 489 885 472 920 q 506 804 506 850 q 474 697 506 737 q 394 627 441 658 q 297 567 347 597 q 211 490 247 537 l 501 490 l 501 379 l 37 379 q 52 474 37 434 q 94 545 68 513 q 156 601 120 576 q 231 651 191 626 q 275 679 252 665 q 318 709 298 693 q 352 747 338 726 q 365 794 365 768 q 342 855 365 830 q 280 880 319 880 q 231 868 251 880 q 200 836 212 855 q 184 793 188 816 q 180 750 179 770 l 38 750 l 38 750 "},"́":{"x_min":-282,"x_max":69.421875,"ha":0,"o":"m -282 807 l -148 1004 l 69 1004 l -144 807 l -282 807 "},"ë":{"x_min":40.28125,"x_max":756.84375,"ha":797,"o":"m 350 991 l 350 829 l 162 829 l 162 991 l 350 991 m 636 991 l 636 829 l 448 829 l 448 991 l 636 991 m 558 436 q 509 550 544 511 q 401 588 473 588 q 322 572 354 588 q 272 533 291 556 q 246 483 254 509 q 237 436 238 456 l 558 436 l 558 436 m 237 311 q 286 172 241 215 q 413 129 330 129 q 516 159 473 129 q 569 222 559 188 l 743 222 q 615 37 701 93 q 406 -18 529 -18 q 254 9 322 -18 q 138 86 186 36 q 65 205 91 136 q 40 358 40 275 q 66 508 40 438 q 141 628 93 577 q 257 708 190 679 q 406 737 325 737 q 566 702 498 737 q 678 606 634 666 q 741 470 722 547 q 755 311 761 394 l 237 311 l 237 311 "},"–":{"x_min":0,"x_max":694.5,"ha":695,"o":"m 694 463 l 694 294 l 0 294 l 0 463 l 694 463 "},"ƒ":{"x_min":-5.5625,"x_max":709.78125,"ha":772,"o":"m 19 -81 q 75 -86 47 -86 q 147 -61 127 -87 q 175 11 166 -36 l 262 468 l 134 468 l 159 600 l 286 600 l 319 776 q 352 887 331 841 q 406 961 373 933 q 488 1002 440 990 q 605 1015 537 1015 q 709 1005 665 1015 l 684 857 q 656 865 669 863 q 629 866 643 866 q 553 845 575 866 q 523 780 531 825 l 488 600 l 625 600 l 602 468 l 463 468 l 386 37 q 355 -82 373 -31 q 305 -167 337 -133 q 223 -218 273 -201 q 95 -234 173 -234 q 45 -234 69 -234 q -5 -230 22 -233 l 19 -81 l 19 -81 "},"J":{"x_min":19.453125,"x_max":676.4375,"ha":772,"o":"m 676 312 q 666 205 676 263 q 622 96 657 147 q 522 11 587 45 q 345 -22 456 -22 q 225 -4 283 -22 q 120 49 166 12 q 47 143 75 86 q 19 283 19 201 l 19 369 l 216 369 l 216 325 q 222 258 216 288 q 241 206 227 227 q 279 172 255 184 q 343 159 304 159 q 409 175 386 159 q 443 214 433 190 q 456 267 454 238 q 458 322 458 295 l 458 991 l 676 991 l 676 312 l 676 312 "},"Ã":{"x_min":-8.328125,"x_max":961.1875,"ha":951,"o":"m 730 1265 q 714 1213 723 1241 q 688 1162 705 1186 q 643 1123 670 1138 q 575 1107 616 1107 q 515 1114 543 1107 q 461 1130 487 1122 q 411 1147 434 1140 q 363 1154 387 1154 q 324 1138 336 1154 q 305 1095 312 1122 l 220 1095 q 238 1156 227 1126 q 269 1210 250 1186 q 319 1250 288 1234 q 395 1265 350 1265 q 441 1257 419 1265 q 484 1241 462 1250 q 529 1224 506 1232 q 576 1216 552 1216 q 622 1231 608 1216 q 634 1265 636 1245 l 730 1265 l 730 1265 m 602 383 l 477 747 l 475 747 l 345 383 l 602 383 m 590 991 l 961 0 l 734 0 l 659 220 l 288 220 l 211 0 l -8 0 l 366 991 l 590 991 "},"̄":{"x_min":-434.78125,"x_max":81.921875,"ha":0,"o":"m 81 959 l 81 855 l -434 855 l -434 959 l 81 959 "},"©":{"x_min":22.21875,"x_max":1088.96875,"ha":1111,"o":"m 827 409 q 796 317 819 358 q 739 247 773 276 q 663 204 705 219 q 575 190 620 190 q 452 213 506 190 q 358 279 397 237 q 297 377 319 320 q 276 498 276 433 q 296 622 276 565 q 354 720 316 679 q 447 786 393 762 q 572 809 502 809 q 663 795 620 809 q 738 754 705 782 q 794 687 772 727 q 823 594 816 647 l 715 594 q 665 670 704 643 q 572 698 626 698 q 451 643 493 698 q 409 501 409 588 q 421 424 409 461 q 454 360 433 387 q 506 317 476 333 q 575 301 537 301 q 670 330 633 301 q 715 409 708 359 l 827 409 l 827 409 m 163 495 q 194 331 163 406 q 277 202 225 256 q 402 118 330 148 q 555 87 473 87 q 707 118 636 87 q 832 202 779 148 q 916 331 884 256 q 947 495 947 406 q 916 659 947 584 q 832 788 884 734 q 707 873 779 843 q 555 904 636 904 q 402 873 473 904 q 277 788 330 843 q 194 659 225 734 q 163 495 163 584 m 22 495 q 65 711 22 615 q 183 874 109 807 q 353 978 256 941 q 555 1015 450 1015 q 757 978 661 1015 q 927 874 854 941 q 1045 711 1001 807 q 1088 495 1088 615 q 1045 281 1088 377 q 927 118 1001 186 q 757 13 854 50 q 555 -22 661 -22 q 353 13 450 -22 q 183 118 256 50 q 65 281 109 186 q 22 495 22 377 "},"˘":{"x_min":-52.78125,"x_max":413.921875,"ha":360,"o":"m 36 1009 q 54 963 40 982 q 88 932 68 944 q 130 916 108 920 q 173 911 152 911 q 275 934 236 911 q 326 1009 313 957 l 413 1009 q 335 854 400 901 q 166 807 270 807 q -52 1009 -36 807 l 36 1009 l 36 1009 "},"≥":{"x_min":16.671875,"x_max":745.890625,"ha":763,"o":"m 744 530 l 744 475 l 16 166 l 16 236 l 661 502 l 16 770 l 16 840 l 744 530 m 745 -45 l 745 -108 l 16 -108 l 16 -45 l 745 -45 "},"D":{"x_min":95.84375,"x_max":973.6875,"ha":1029,"o":"m 508 183 q 600 198 555 183 q 679 249 644 213 q 734 341 713 284 q 755 480 755 398 q 741 616 755 555 q 693 719 726 676 q 604 785 659 762 q 469 808 550 808 l 313 808 l 313 183 l 508 183 m 523 991 q 702 961 619 991 q 845 869 784 930 q 939 716 905 808 q 973 501 973 625 q 945 301 973 393 q 861 143 918 209 q 721 38 805 76 q 523 0 637 0 l 95 0 l 95 991 l 523 991 "},"":{"x_min":0,"x_max":0,"ha":0},"ÿ":{"x_min":-6.9375,"x_max":729.21875,"ha":721,"o":"m 311 991 l 311 829 l 123 829 l 123 991 l 311 991 m 597 991 l 597 829 l 409 829 l 409 991 l 597 991 m 429 -88 q 340 -213 397 -176 q 181 -251 283 -251 q 121 -249 151 -251 q 61 -244 91 -247 l 61 -81 q 118 -87 88 -84 q 176 -88 147 -90 q 234 -58 215 -84 q 252 0 252 -31 q 244 44 252 23 l -6 718 l 202 718 l 365 226 l 368 226 l 525 718 l 729 718 l 429 -88 l 429 -88 "},"ł":{"x_min":-11.109375,"x_max":370.859375,"ha":358,"o":"m -11 323 l -11 465 l 80 538 l 80 991 l 277 991 l 277 694 l 370 768 l 370 626 l 277 552 l 277 0 l 80 0 l 80 397 l -11 323 "},"Ł":{"x_min":-13.890625,"x_max":797.28125,"ha":824,"o":"m -13 219 l -13 375 l 95 452 l 95 991 l 313 991 l 313 605 l 607 811 l 607 655 l 313 450 l 313 183 l 797 183 l 797 0 l 95 0 l 95 297 l -13 219 "},"$":{"x_min":0,"x_max":773.671875,"ha":772,"o":"m 195 322 q 237 197 194 243 q 344 138 280 151 l 344 429 q 325 435 337 431 q 300 441 313 438 q 198 474 248 455 q 109 524 148 493 q 45 602 69 555 q 22 718 22 648 q 49 843 22 788 q 120 934 76 897 q 223 991 165 970 q 344 1015 281 1011 l 344 1122 l 426 1122 l 426 1015 q 543 988 488 1008 q 640 932 598 968 q 708 844 682 897 q 738 719 734 791 l 541 719 q 506 813 540 775 q 426 852 473 852 l 426 607 q 460 598 443 602 q 497 588 477 594 q 655 520 600 561 q 737 434 711 479 q 768 345 763 390 q 773 266 773 301 q 758 189 773 236 q 703 98 743 143 q 597 19 663 54 q 426 -22 530 -15 l 426 -140 l 344 -140 l 344 -22 q 101 73 188 -11 q 0 322 13 158 l 195 322 l 195 322 m 426 138 q 478 150 451 141 q 527 176 505 159 q 562 217 548 193 q 576 275 576 241 q 542 356 576 329 q 426 405 508 383 l 426 138 l 426 138 m 344 852 q 298 845 320 852 q 258 824 276 838 q 229 788 240 809 q 219 737 219 766 q 248 666 219 691 q 344 626 277 641 l 344 852 l 344 852 "},"w":{"x_min":8.328125,"x_max":1122.3125,"ha":1131,"o":"m 693 0 l 565 481 l 562 481 l 440 0 l 236 0 l 8 718 l 216 718 l 348 230 l 351 230 l 470 718 l 662 718 l 784 231 l 787 231 l 919 718 l 1122 718 l 895 0 l 693 0 "},"\\":{"x_min":-13.890625,"x_max":530.59375,"ha":515,"o":"m 372 -22 l -13 1015 l 143 1015 l 530 -22 l 372 -22 "},"∫":{"x_min":0,"x_max":379.203125,"ha":381,"o":"m 147 1001 q 159 1097 150 1054 q 181 1173 168 1140 q 231 1241 200 1219 q 294 1263 263 1263 q 354 1241 329 1263 q 379 1190 379 1218 q 361 1139 379 1158 q 318 1120 344 1120 q 265 1144 293 1120 q 238 1158 251 1158 q 219 1148 227 1158 q 211 1115 211 1138 q 213 1077 211 1101 q 218 1016 215 1052 q 243 566 243 737 q 240 444 243 543 q 231 166 237 345 q 170 -101 225 -31 q 80 -147 136 -147 q 22 -124 44 -147 q 0 -65 0 -101 q 17 -17 0 -34 q 61 0 34 0 q 106 -19 87 0 q 141 -41 127 -41 q 168 0 168 -41 q 165 32 168 12 q 161 79 163 52 q 144 308 151 177 q 136 607 136 477 l 147 1001 l 147 1001 "},"Ì":{"x_min":-40.28125,"x_max":313.90625,"ha":410,"o":"m 176 1277 l 309 1080 l 172 1080 l -40 1277 l 176 1277 m 313 991 l 313 0 l 95 0 l 95 991 l 313 991 "},"Ç":{"x_min":52.78125,"x_max":976.46875,"ha":1029,"o":"m 757 658 q 732 727 751 695 q 683 782 712 758 q 617 818 654 805 q 540 832 580 832 q 415 803 466 832 q 331 727 363 775 q 285 618 300 679 q 270 491 270 556 q 285 370 270 429 q 331 263 300 311 q 415 188 363 216 q 540 159 466 159 q 696 220 640 159 q 765 381 752 281 l 976 381 q 933 214 968 288 q 842 88 898 140 q 710 7 786 36 q 544 -22 634 -20 l 508 -72 l 511 -72 q 558 -65 527 -65 q 604 -70 581 -65 q 645 -88 627 -76 q 675 -118 663 -100 q 686 -162 686 -137 q 672 -229 686 -202 q 635 -272 658 -256 q 583 -295 612 -288 q 523 -301 554 -301 q 466 -299 490 -301 q 424 -293 443 -297 q 388 -283 405 -288 q 351 -270 370 -277 l 380 -204 q 431 -221 402 -213 q 497 -229 461 -229 q 537 -218 522 -229 q 552 -181 552 -206 q 536 -146 552 -155 q 497 -137 520 -137 q 441 -147 466 -137 l 412 -113 l 479 -18 q 298 35 377 -8 q 164 147 219 79 q 81 303 109 215 q 52 491 52 391 q 86 697 52 602 q 181 863 119 793 q 335 975 244 934 q 540 1015 426 1015 q 695 991 622 1015 q 825 922 768 968 q 920 811 883 877 q 968 658 958 744 l 757 658 l 757 658 "},"C":{"x_min":52.78125,"x_max":976.46875,"ha":1029,"o":"m 757 658 q 732 727 751 695 q 683 782 712 758 q 617 818 654 805 q 540 832 580 832 q 415 803 466 832 q 331 727 363 775 q 285 618 300 679 q 270 491 270 556 q 285 370 270 429 q 331 263 300 311 q 415 188 363 216 q 540 159 466 159 q 696 220 640 159 q 765 381 752 281 l 976 381 q 933 213 968 288 q 841 86 898 138 q 708 5 784 33 q 540 -22 632 -22 q 335 17 426 -22 q 181 126 244 56 q 86 289 119 195 q 52 491 52 383 q 86 697 52 602 q 181 863 119 793 q 335 975 244 934 q 540 1015 426 1015 q 695 991 622 1015 q 825 922 768 968 q 920 811 883 877 q 968 658 958 744 l 757 658 l 757 658 "},"!":{"x_min":84.734375,"x_max":302.796875,"ha":386,"o":"m 302 213 l 302 0 l 84 0 l 84 213 l 302 213 m 241 297 l 143 297 l 90 725 l 90 991 l 295 991 l 295 725 l 241 297 "},"ç":{"x_min":52.78125,"x_max":761.171875,"ha":797,"o":"m 563 465 q 418 588 544 588 q 338 567 370 588 q 286 511 306 545 q 258 436 266 477 q 250 355 250 395 q 258 276 250 316 q 285 203 266 236 q 336 150 304 170 q 413 129 368 129 q 522 168 484 129 q 570 275 561 208 l 761 275 q 656 61 743 136 q 431 -16 569 -12 l 393 -72 l 395 -72 q 443 -65 412 -65 q 489 -70 466 -65 q 530 -88 512 -76 q 559 -118 548 -100 q 570 -162 570 -137 q 556 -229 570 -202 q 520 -272 543 -256 q 468 -295 497 -288 q 408 -301 438 -301 q 351 -299 375 -301 q 309 -293 327 -297 q 272 -283 290 -288 q 236 -270 255 -277 l 265 -204 q 316 -221 287 -213 q 381 -229 345 -229 q 422 -218 406 -229 q 437 -181 437 -206 q 421 -146 437 -155 q 381 -137 405 -137 q 326 -147 351 -137 l 297 -113 l 366 -13 q 238 22 295 -6 q 138 99 180 51 q 75 210 97 147 q 52 348 52 273 q 77 503 52 431 q 148 627 101 575 q 263 708 195 679 q 419 737 331 737 q 542 720 483 737 q 647 670 601 704 q 723 585 694 636 q 757 465 752 534 l 563 465 l 563 465 "},"È":{"x_min":95.84375,"x_max":848.671875,"ha":900,"o":"m 422 1277 l 555 1080 l 418 1080 l 204 1277 l 422 1277 m 837 991 l 837 808 l 313 808 l 313 595 l 794 595 l 794 426 l 313 426 l 313 183 l 848 183 l 848 0 l 95 0 l 95 991 l 837 991 "},"ﬁ":{"x_min":0,"x_max":768.109375,"ha":849,"o":"m 0 586 l 0 718 l 118 718 l 118 773 q 177 930 118 869 q 358 991 237 991 q 411 989 384 991 q 462 986 437 987 l 462 838 q 390 843 427 843 q 332 824 350 843 q 315 761 315 805 l 315 718 l 451 718 l 451 586 l 315 586 l 315 0 l 118 0 l 118 586 l 0 586 m 768 718 l 768 0 l 570 0 l 570 718 l 768 718 m 570 829 l 570 991 l 768 991 l 768 829 l 570 829 "},"X":{"x_min":-6.9375,"x_max":934.796875,"ha":926,"o":"m 19 991 l 272 991 l 466 675 l 668 991 l 907 991 l 588 518 l 934 0 l 675 0 l 458 343 l 237 0 l -6 0 l 338 519 l 19 991 "},"ô":{"x_min":52.78125,"x_max":795.890625,"ha":849,"o":"m 515 1004 l 668 807 l 505 807 l 419 919 l 330 807 l 180 807 l 334 1004 l 515 1004 m 250 358 q 258 274 250 315 q 286 200 266 233 q 340 148 306 168 q 423 129 373 129 q 507 148 473 129 q 561 200 541 168 q 590 274 581 233 q 598 358 598 315 q 590 443 598 401 q 561 516 581 484 q 507 568 541 548 q 423 588 473 588 q 340 568 373 588 q 286 516 306 548 q 258 443 266 484 q 250 358 250 401 m 52 358 q 79 514 52 444 q 154 634 105 584 q 270 710 202 683 q 423 737 338 737 q 577 710 508 737 q 694 634 645 683 q 769 514 743 584 q 795 358 795 444 q 769 202 795 272 q 694 84 743 133 q 577 8 645 34 q 423 -18 508 -18 q 270 8 338 -18 q 154 84 202 34 q 79 202 105 133 q 52 358 52 272 "},"}":{"x_min":0,"x_max":475.03125,"ha":463,"o":"m 75 -95 q 114 -86 100 -95 q 137 -61 129 -76 q 147 -29 145 -47 q 150 4 150 -11 l 150 226 q 165 299 150 270 q 203 345 181 327 q 248 370 225 362 q 287 379 272 377 l 287 383 q 248 391 272 384 q 203 416 225 398 q 165 464 181 433 q 150 547 150 495 l 150 758 q 147 793 150 775 q 137 825 145 811 q 114 850 129 840 q 75 859 100 859 l 0 859 l 0 1015 l 176 1015 q 229 1003 200 1015 q 285 968 259 991 q 329 910 311 945 q 347 827 347 875 l 347 566 q 361 507 347 531 q 394 468 375 483 q 436 447 413 454 q 475 441 458 441 l 475 320 q 436 314 458 320 q 394 295 413 308 q 361 259 375 281 q 347 205 347 237 l 347 -63 q 329 -146 347 -111 q 285 -204 311 -181 q 229 -239 259 -227 q 176 -251 200 -251 l 0 -251 l 0 -95 l 75 -95 "},"â":{"x_min":44.453125,"x_max":744.5,"ha":797,"o":"m 490 1004 l 643 807 l 480 807 l 394 919 l 305 807 l 155 807 l 309 1004 l 490 1004 m 66 497 q 101 612 70 566 q 179 686 131 658 q 285 725 226 713 q 404 737 344 737 q 513 729 458 737 q 615 700 569 722 q 690 638 661 677 q 719 533 719 598 l 719 159 q 725 66 719 111 q 744 0 730 22 l 544 0 q 535 34 538 16 q 530 69 531 51 q 419 1 483 20 q 288 -18 355 -18 q 193 -5 237 -18 q 115 33 148 6 q 63 100 81 59 q 44 195 44 140 q 65 296 44 256 q 121 359 87 336 q 199 395 155 383 q 287 413 243 406 q 375 425 331 420 q 451 437 418 429 q 504 461 484 445 q 522 508 523 477 q 511 559 522 540 q 484 588 501 577 q 443 602 466 598 q 394 605 420 605 q 302 580 336 605 q 263 497 269 555 l 66 497 l 66 497 m 522 351 q 491 334 509 340 q 450 323 472 327 q 405 316 429 319 q 358 309 381 313 q 314 298 336 305 q 277 279 293 291 q 251 250 261 268 q 241 204 241 231 q 251 159 241 177 q 277 131 261 141 q 316 116 294 120 q 362 112 338 112 q 452 131 420 112 q 500 178 484 151 q 518 233 515 205 q 522 277 522 261 l 522 351 l 522 351 "},"ø":{"x_min":52.78125,"x_max":795.890625,"ha":849,"o":"m 144 95 q 52 358 52 195 q 79 514 52 444 q 154 634 105 584 q 270 710 202 683 q 423 737 338 737 q 650 670 556 737 l 723 755 l 775 711 l 700 626 q 770 509 745 577 q 795 358 795 441 q 769 202 795 272 q 694 84 743 133 q 577 8 645 34 q 423 -18 508 -18 q 194 50 287 -18 l 112 -41 l 61 1 l 144 95 l 144 95 m 305 176 q 354 141 325 154 q 423 129 383 129 q 507 148 473 129 q 561 200 541 168 q 590 274 581 233 q 598 358 598 315 q 593 424 598 391 q 576 484 587 456 l 305 176 l 305 176 m 538 544 q 423 588 497 588 q 340 568 373 588 q 286 516 306 548 q 258 443 266 484 q 250 358 250 401 q 254 295 250 326 q 270 238 259 265 l 538 544 l 538 544 "},"Ä":{"x_min":-8.328125,"x_max":961.1875,"ha":951,"o":"m 426 1265 l 426 1102 l 238 1102 l 238 1265 l 426 1265 m 712 1265 l 712 1102 l 525 1102 l 525 1265 l 712 1265 m 602 383 l 477 747 l 475 747 l 345 383 l 602 383 m 590 991 l 961 0 l 734 0 l 659 220 l 288 220 l 211 0 l -8 0 l 366 991 l 590 991 "},"‰":{"x_min":95.84375,"x_max":1497.34375,"ha":1593,"o":"m 611 215 q 622 308 611 263 q 659 386 634 352 q 722 438 683 419 q 815 458 761 458 q 910 439 872 458 q 972 388 948 420 q 1006 311 995 355 q 1016 216 1016 266 q 1004 122 1016 165 q 968 47 993 79 q 906 0 944 16 q 813 -18 868 -18 q 663 46 716 -18 q 611 215 611 111 m 901 1002 l 329 -29 l 208 -29 l 783 1002 l 901 1002 m 220 772 q 222 712 220 743 q 232 658 225 682 q 256 619 240 634 q 298 604 272 604 q 343 618 327 604 q 367 653 359 632 q 375 701 375 675 q 376 752 376 727 q 375 807 376 780 q 366 854 373 833 q 344 888 359 875 q 301 901 329 901 q 256 888 272 901 q 231 857 240 876 q 222 814 223 837 q 220 772 220 791 m 95 748 q 107 841 95 797 q 143 919 119 886 q 206 972 168 952 q 300 991 245 991 q 395 973 356 991 q 456 921 433 954 q 491 844 480 888 q 501 750 501 800 q 489 656 501 700 q 453 581 477 612 q 391 531 429 550 q 298 513 352 513 q 148 579 201 513 q 95 748 95 644 m 1216 238 q 1218 179 1216 209 q 1228 125 1220 148 q 1252 86 1236 101 q 1294 70 1268 70 q 1339 84 1323 70 q 1363 120 1355 98 q 1371 168 1370 141 q 1372 219 1372 194 q 1370 273 1372 247 q 1362 320 1369 300 q 1340 354 1355 341 q 1297 368 1325 368 q 1252 355 1268 368 q 1227 323 1236 343 q 1218 281 1219 304 q 1216 238 1216 258 m 1091 215 q 1103 308 1091 263 q 1139 386 1115 352 q 1202 438 1163 419 q 1295 458 1241 458 q 1391 439 1352 458 q 1452 388 1429 420 q 1486 311 1476 355 q 1497 216 1497 266 q 1485 122 1497 165 q 1449 47 1473 79 q 1386 0 1425 16 q 1294 -18 1348 -18 q 1144 46 1197 -18 q 1091 215 1091 111 m 736 238 q 738 179 736 209 q 747 125 740 148 q 771 86 755 101 q 813 70 787 70 q 859 84 843 70 q 882 120 875 98 q 891 168 890 141 q 891 219 891 194 q 890 273 891 247 q 882 320 888 300 q 859 354 875 341 q 816 368 844 368 q 771 355 787 368 q 747 323 755 343 q 737 281 738 304 q 736 238 736 258 "},"N":{"x_min":95.84375,"x_max":933.40625,"ha":1029,"o":"m 312 991 l 726 326 l 729 326 l 729 991 l 933 991 l 933 0 l 715 0 l 302 663 l 300 663 l 300 0 l 95 0 l 95 991 l 312 991 "},"—":{"x_min":180.5625,"x_max":1208.4375,"ha":1389,"o":"m 1208 463 l 1208 294 l 180 294 l 180 463 l 1208 463 "},"2":{"x_min":29.171875,"x_max":743.109375,"ha":772,"o":"m 51 598 q 70 753 48 682 q 137 878 93 825 q 249 961 181 932 q 404 991 316 991 q 531 970 470 991 q 637 911 591 950 q 710 815 683 872 q 737 687 737 758 q 713 561 737 613 q 651 467 690 508 q 563 393 612 426 q 463 327 513 359 q 366 256 413 294 q 283 169 319 219 l 743 169 l 743 0 l 29 0 q 53 147 29 84 q 119 259 77 209 q 217 350 161 308 q 336 434 273 391 q 404 479 368 456 q 470 530 440 502 q 520 593 500 558 q 540 672 540 627 q 499 782 540 743 q 394 822 458 822 q 321 802 351 822 q 273 749 291 782 q 247 677 255 716 q 240 598 240 637 l 51 598 l 51 598 "},"⁄":{"x_min":-229.1875,"x_max":462.53125,"ha":232,"o":"m 462 1002 l -108 -29 l -229 -29 l 344 1002 l 462 1002 "},"\t":{"x_min":0,"x_max":0,"ha":386},"ü":{"x_min":75,"x_max":748.671875,"ha":824,"o":"m 362 991 l 362 829 l 175 829 l 175 991 l 362 991 m 648 991 l 648 829 l 461 829 l 461 991 l 648 991 m 561 0 l 561 100 l 556 100 q 459 9 519 37 q 337 -18 400 -18 q 207 2 258 -18 q 127 61 156 23 q 86 154 98 100 q 75 276 75 209 l 75 718 l 272 718 l 272 312 q 300 179 272 223 q 398 136 327 136 q 515 184 479 136 q 551 341 551 231 l 551 718 l 748 718 l 748 0 l 561 0 "},"Ó":{"x_min":52.78125,"x_max":1027.859375,"ha":1081,"o":"m 436 1080 l 569 1277 l 787 1277 l 573 1080 l 436 1080 m 270 491 q 285 370 270 429 q 331 263 300 311 q 415 188 363 216 q 540 159 466 159 q 665 188 613 159 q 748 263 716 216 q 795 370 780 311 q 809 491 809 429 q 795 618 809 556 q 748 727 780 679 q 665 803 716 775 q 540 832 613 832 q 415 803 466 832 q 331 727 363 775 q 285 618 300 679 q 270 491 270 556 m 52 491 q 86 697 52 602 q 181 863 119 793 q 335 975 244 934 q 540 1015 426 1015 q 745 975 655 1015 q 898 863 836 934 q 994 697 961 793 q 1027 491 1027 602 q 994 289 1027 383 q 898 126 961 195 q 745 17 836 56 q 540 -22 655 -22 q 335 17 426 -22 q 181 126 244 56 q 86 289 119 195 q 52 491 52 383 "},"˜":{"x_min":-73.609375,"x_max":434.75,"ha":360,"o":"m 434 991 q 418 940 427 968 q 392 888 409 912 q 347 849 375 865 q 279 833 320 833 q 219 841 247 833 q 165 857 191 848 q 115 873 138 866 q 68 880 91 880 q 28 864 40 880 q 9 822 16 848 l -73 822 q -55 882 -66 852 q -25 936 -44 912 q 24 976 -5 961 q 100 991 54 991 q 145 984 123 991 q 188 968 166 976 q 234 950 211 958 q 280 943 256 943 q 326 957 312 943 q 338 991 340 972 l 434 991 l 434 991 "},"ˇ":{"x_min":-62.5,"x_max":423.640625,"ha":360,"o":"m 90 807 l -62 1004 l 91 1004 l 180 891 l 270 1004 l 423 1004 l 270 807 l 90 807 "},"Ÿ":{"x_min":-11.109375,"x_max":938.96875,"ha":926,"o":"m 413 1265 l 413 1102 l 226 1102 l 226 1265 l 413 1265 m 700 1265 l 700 1102 l 512 1102 l 512 1265 l 700 1265 m -11 991 l 233 991 l 465 600 l 695 991 l 938 991 l 570 380 l 570 0 l 352 0 l 352 386 l -11 991 "},"€":{"x_min":20.828125,"x_max":800.0625,"ha":772,"o":"m 715 759 q 533 822 618 822 q 338 632 387 822 l 677 632 l 634 531 l 323 531 l 322 473 l 618 473 l 575 373 l 333 373 q 538 154 377 154 q 752 241 643 154 l 751 31 q 537 -22 658 -22 q 255 90 362 -22 q 129 373 158 191 l 22 373 l 65 473 l 120 473 l 120 509 q 122 531 120 529 l 20 531 l 63 632 l 134 632 q 272 897 168 800 q 547 1002 381 1002 q 800 933 663 1002 l 715 759 l 715 759 "},"̌":{"x_min":-419.5,"x_max":66.640625,"ha":0,"o":"m -266 807 l -419 1004 l -265 1004 l -176 891 l -86 1004 l 66 1004 l -86 807 l -266 807 "},"ß":{"x_min":77.78125,"x_max":770.890625,"ha":849,"o":"m 77 682 q 89 799 77 740 q 136 906 101 858 q 236 984 172 954 q 404 1015 300 1015 q 523 999 466 1015 q 624 950 580 983 q 693 868 668 918 q 719 748 719 818 q 684 627 719 682 q 590 555 648 573 l 590 552 q 669 520 636 543 q 725 463 702 497 q 759 389 748 430 q 770 304 770 348 q 748 180 770 238 q 686 77 726 122 q 591 7 645 33 q 469 -18 536 -18 q 355 -9 412 -18 l 355 150 q 383 144 369 145 q 412 143 397 143 q 477 156 448 143 q 528 192 506 169 q 561 245 550 215 q 573 311 573 276 q 532 433 573 386 q 404 480 491 480 q 380 479 393 480 q 355 477 368 479 l 355 608 q 371 606 363 607 q 386 605 379 605 q 440 612 413 605 q 486 634 466 619 q 519 673 506 650 q 531 729 531 697 q 516 797 531 773 q 480 834 501 822 q 436 850 459 847 q 398 852 413 852 q 306 816 338 852 q 275 716 275 779 l 275 0 l 77 0 l 77 682 l 77 682 "},"Ω":{"x_min":48.609375,"x_max":1019.53125,"ha":1067,"o":"m 48 0 l 48 226 l 70 226 q 85 183 77 200 q 103 157 93 166 q 129 145 113 148 q 170 143 145 143 l 376 143 l 376 162 q 206 241 268 193 q 110 372 145 291 q 75 538 75 452 q 129 737 75 641 q 289 885 184 833 q 533 937 394 937 q 776 886 675 937 q 936 737 883 833 q 991 538 991 644 q 955 372 991 456 q 859 242 920 290 q 691 162 798 194 l 691 143 l 897 143 q 938 145 922 143 q 964 157 954 148 q 982 183 975 166 q 995 226 988 200 l 1019 226 l 1019 0 l 608 0 l 630 197 q 755 286 712 227 q 826 540 826 384 q 748 802 826 715 q 537 890 670 890 q 329 812 398 890 q 241 541 241 715 q 268 366 241 441 q 345 248 295 291 q 437 197 376 218 l 458 0 l 48 0 "},"s":{"x_min":40.28125,"x_max":705.609375,"ha":746,"o":"m 227 233 q 240 178 227 201 q 275 140 254 155 q 322 119 295 126 q 379 112 350 112 q 422 117 400 112 q 464 132 445 122 q 495 160 483 143 q 508 204 508 177 q 449 270 508 248 q 284 315 390 293 q 200 338 241 325 q 127 372 159 351 q 76 427 95 394 q 56 506 56 459 q 84 620 56 576 q 155 691 111 665 q 255 727 200 716 q 369 737 311 737 q 482 726 427 737 q 580 688 537 715 q 652 618 623 662 q 686 508 680 575 l 498 508 q 455 585 494 565 q 363 605 416 605 q 327 603 347 605 q 292 594 308 601 q 265 574 276 587 q 254 538 254 561 q 273 495 254 512 q 324 468 293 479 q 395 450 355 458 q 477 431 436 441 q 561 408 520 422 q 634 371 602 394 q 686 314 666 348 q 705 230 705 280 q 677 111 705 159 q 602 34 648 63 q 497 -6 556 5 q 377 -18 438 -18 q 255 -5 315 -18 q 149 36 195 6 q 72 113 102 65 q 40 233 43 161 l 227 233 l 227 233 "},"̀":{"x_min":-422.28125,"x_max":-72.25,"ha":0,"o":"m -205 1004 l -72 807 l -209 807 l -422 1004 l -205 1004 "},"?":{"x_min":44.453125,"x_max":727.84375,"ha":772,"o":"m 486 213 l 486 0 l 268 0 l 268 213 l 486 213 m 44 672 q 70 809 45 747 q 138 918 94 872 q 243 989 181 963 q 381 1015 305 1015 q 546 988 480 1015 q 652 920 612 961 q 710 834 693 880 q 727 747 727 787 q 710 637 727 680 q 667 563 693 594 q 610 511 641 533 q 551 468 579 490 q 502 419 523 447 q 475 350 480 391 l 475 297 l 287 297 l 287 359 q 310 459 291 419 q 354 528 329 500 q 406 577 379 556 q 458 619 434 598 q 496 665 481 640 q 509 727 511 690 q 478 822 509 791 q 391 852 447 852 q 327 838 354 852 q 282 799 300 823 q 256 742 265 775 q 248 672 248 709 l 44 672 l 44 672 "},"c":{"x_min":52.78125,"x_max":761.171875,"ha":797,"o":"m 563 465 q 418 588 544 588 q 338 567 370 588 q 286 511 306 545 q 258 436 266 477 q 250 355 250 395 q 258 276 250 316 q 285 203 266 236 q 336 150 304 170 q 413 129 368 129 q 522 168 484 129 q 570 275 561 208 l 761 275 q 650 56 741 131 q 415 -18 558 -18 q 267 9 334 -18 q 152 84 200 36 q 79 200 105 133 q 52 348 52 268 q 77 503 52 431 q 148 627 101 575 q 263 708 195 679 q 419 737 331 737 q 542 720 483 737 q 647 670 601 704 q 723 585 694 636 q 757 465 752 534 l 563 465 l 563 465 "},"¶":{"x_min":2.78125,"x_max":743.109375,"ha":861,"o":"m 306 495 q 81 561 159 495 q 2 738 2 626 q 27 859 2 811 q 97 937 52 908 q 202 979 141 966 q 336 991 263 991 l 743 991 l 743 -229 l 601 -229 l 601 880 l 448 880 l 448 -229 l 306 -229 l 306 495 l 306 495 "},"•":{"x_min":100.015625,"x_max":595.875,"ha":696,"o":"m 100 495 q 119 592 100 547 q 172 670 138 637 q 250 723 205 704 q 347 743 295 743 q 443 723 398 743 q 522 670 488 704 q 576 592 556 637 q 595 495 595 547 q 576 399 595 444 q 522 320 556 354 q 443 266 488 286 q 347 247 398 247 q 250 266 295 247 q 172 320 205 286 q 119 399 138 354 q 100 495 100 444 "},"(":{"x_min":72.234375,"x_max":420.859375,"ha":411,"o":"m 420 1015 q 305 709 341 868 q 269 386 269 550 q 304 59 269 219 q 419 -251 340 -100 l 255 -251 q 120 50 168 -108 q 72 372 72 208 q 84 535 72 450 q 118 705 95 620 q 175 869 141 790 q 255 1015 209 948 l 420 1015 l 420 1015 "},"◊":{"x_min":31.953125,"x_max":655.609375,"ha":686,"o":"m 655 480 l 372 0 l 297 0 l 31 480 l 297 963 l 372 963 l 655 480 m 105 480 l 336 63 l 579 480 l 336 898 l 105 480 "},":":{"x_min":84.734375,"x_max":302.796875,"ha":386,"o":"m 84 491 l 84 705 l 302 705 l 302 491 l 84 491 m 302 213 l 302 0 l 84 0 l 84 213 l 302 213 "},"Û":{"x_min":91.671875,"x_max":937.578125,"ha":1029,"o":"m 605 1277 l 758 1080 l 595 1080 l 509 1193 l 420 1080 l 270 1080 l 425 1277 l 605 1277 m 937 375 q 825 75 937 173 q 513 -22 712 -22 q 202 75 312 -22 q 91 375 91 172 l 91 991 l 309 991 l 309 375 q 316 295 309 334 q 345 227 323 256 q 407 178 368 197 q 513 159 447 159 q 675 211 630 159 q 719 375 719 263 l 719 991 l 937 991 l 937 375 l 937 375 "},"V":{"x_min":-9.71875,"x_max":886.1875,"ha":875,"o":"m 311 0 l -9 991 l 213 991 l 434 294 l 437 294 l 661 991 l 886 991 l 556 0 l 311 0 "}," ":{"x_min":0,"x_max":0,"ha":386},"@":{"x_min":50,"x_max":1061.203125,"ha":1111,"o":"m 776 398 q 768 368 772 384 q 765 338 765 352 q 770 316 765 325 q 788 306 776 306 q 847 325 818 306 q 900 378 877 344 q 938 459 923 412 q 952 562 952 506 q 923 709 952 645 q 843 816 894 772 q 724 882 793 859 q 576 904 655 904 q 414 872 487 904 q 290 786 341 841 q 211 656 238 732 q 183 493 183 580 q 213 327 183 401 q 298 199 244 252 q 428 116 352 145 q 593 87 504 87 q 759 117 680 87 q 891 201 837 147 l 1008 201 q 826 35 937 93 q 584 -22 715 -22 q 376 16 473 -22 q 206 125 279 55 q 91 289 133 194 q 50 495 50 384 q 91 700 50 605 q 205 865 133 795 q 373 975 277 934 q 577 1015 469 1015 q 759 984 672 1015 q 913 899 847 954 q 1020 766 980 844 q 1061 591 1061 687 q 1023 408 1061 484 q 931 283 984 331 q 822 211 877 234 q 734 188 768 188 q 663 211 690 188 q 633 268 636 233 l 630 268 q 565 206 605 226 q 480 187 525 187 q 396 206 436 187 q 327 257 356 225 q 279 333 297 290 q 262 425 262 376 q 284 554 262 490 q 345 668 305 618 q 441 748 384 718 q 565 779 497 779 q 656 757 609 779 q 727 682 704 736 l 750 757 l 863 757 l 776 398 l 776 398 m 404 443 q 434 353 404 387 q 512 319 463 319 q 581 338 550 319 q 635 388 612 358 q 670 455 658 418 q 683 529 683 493 q 652 613 683 580 q 576 647 620 647 q 506 628 538 647 q 452 579 475 609 q 416 513 429 550 q 404 443 404 477 "},"¾":{"x_min":54.0625,"x_max":1197.3125,"ha":1235,"o":"m 982 434 l 823 234 l 984 234 l 984 434 l 982 434 m 718 123 l 718 252 l 979 583 l 1118 583 l 1118 234 l 1197 234 l 1197 123 l 1118 123 l 1118 0 l 984 0 l 984 123 l 718 123 m 251 741 q 293 742 270 741 q 336 749 316 743 q 370 768 356 755 q 383 807 383 782 q 356 861 383 841 q 297 880 330 880 q 227 851 252 880 q 204 780 202 822 l 70 780 q 132 934 73 877 q 295 991 191 991 q 377 981 337 991 q 447 949 416 970 q 497 895 479 927 q 516 820 516 863 q 493 745 516 779 q 425 701 470 712 l 425 698 q 507 652 477 688 q 537 568 537 616 q 518 480 537 518 q 466 417 498 443 q 389 379 433 391 q 297 366 345 366 q 118 423 184 366 q 54 588 51 480 l 187 588 q 215 511 190 544 q 294 477 241 477 q 366 502 336 477 q 395 565 395 526 q 381 611 395 594 q 346 634 368 627 q 300 643 325 641 q 251 644 275 644 l 251 741 l 251 741 m 1025 1002 l 452 -29 l 331 -29 l 907 1002 l 1025 1002 "},"i":{"x_min":80.5625,"x_max":277.796875,"ha":358,"o":"m 80 829 l 80 991 l 277 991 l 277 829 l 80 829 m 277 718 l 277 0 l 80 0 l 80 718 l 277 718 "},"≤":{"x_min":16.671875,"x_max":745.890625,"ha":763,"o":"m 16 476 l 16 531 l 744 840 l 744 770 l 100 504 l 744 236 l 744 166 l 16 476 m 745 -45 l 745 -108 l 16 -108 l 16 -45 l 745 -45 "},"m":{"x_min":80.5625,"x_max":1177.875,"ha":1258,"o":"m 266 718 l 266 620 l 269 620 q 363 707 308 676 q 488 737 418 737 q 613 711 556 737 q 698 618 669 684 q 785 701 730 665 q 915 737 840 737 q 1020 723 972 737 q 1104 679 1069 709 q 1158 599 1138 648 q 1177 480 1177 550 l 1177 0 l 980 0 l 980 406 q 977 475 980 443 q 962 530 975 506 q 925 568 950 554 q 859 581 901 581 q 792 566 818 581 q 752 524 766 550 q 732 466 737 498 q 727 400 727 433 l 727 0 l 530 0 l 530 402 q 529 466 530 434 q 517 523 527 497 q 482 566 506 550 q 411 581 458 581 q 374 575 397 581 q 329 552 351 569 q 293 502 308 534 q 277 416 277 469 l 277 0 l 80 0 l 80 718 l 266 718 "},"ž":{"x_min":30.5625,"x_max":690.328125,"ha":721,"o":"m 270 807 l 116 1004 l 272 1004 l 361 891 l 451 1004 l 604 1004 l 451 807 l 270 807 m 404 569 l 58 569 l 58 718 l 663 718 l 663 569 l 290 148 l 690 148 l 690 0 l 30 0 l 30 148 l 404 569 "},"á":{"x_min":44.453125,"x_max":744.5,"ha":797,"o":"m 294 807 l 427 1004 l 645 1004 l 431 807 l 294 807 m 66 497 q 101 612 70 566 q 179 686 131 658 q 285 725 226 713 q 404 737 344 737 q 513 729 458 737 q 615 700 569 722 q 690 638 661 677 q 719 533 719 598 l 719 159 q 725 66 719 111 q 744 0 730 22 l 544 0 q 535 34 538 16 q 530 69 531 51 q 419 1 483 20 q 288 -18 355 -18 q 193 -5 237 -18 q 115 33 148 6 q 63 100 81 59 q 44 195 44 140 q 65 296 44 256 q 121 359 87 336 q 199 395 155 383 q 287 413 243 406 q 375 425 331 420 q 451 437 418 429 q 504 461 484 445 q 522 508 523 477 q 511 559 522 540 q 484 588 501 577 q 443 602 466 598 q 394 605 420 605 q 302 580 336 605 q 263 497 269 555 l 66 497 l 66 497 m 522 351 q 491 334 509 340 q 450 323 472 327 q 405 316 429 319 q 358 309 381 313 q 314 298 336 305 q 277 279 293 291 q 251 250 261 268 q 241 204 241 231 q 251 159 241 177 q 277 131 261 141 q 316 116 294 120 q 362 112 338 112 q 452 131 420 112 q 500 178 484 151 q 518 233 515 205 q 522 277 522 261 l 522 351 l 522 351 "},"×":{"x_min":88.890625,"x_max":745.890625,"ha":833,"o":"m 312 351 l 91 573 l 197 679 l 418 456 l 640 679 l 745 573 l 522 351 l 745 129 l 640 23 l 418 247 l 194 23 l 88 129 l 312 351 "},"K":{"x_min":95.84375,"x_max":1011.1875,"ha":1003,"o":"m 313 991 l 313 580 l 701 991 l 973 991 l 586 600 l 1011 0 l 737 0 l 438 445 l 313 319 l 313 0 l 95 0 l 95 991 l 313 991 "},"7":{"x_min":54.171875,"x_max":718.109375,"ha":772,"o":"m 718 802 q 582 638 641 736 q 484 431 523 541 q 422 209 444 322 q 400 0 401 97 l 188 0 q 291 419 205 218 q 515 788 376 620 l 54 788 l 54 972 l 718 972 l 718 802 l 718 802 "},"¨":{"x_min":-55.5625,"x_max":416.703125,"ha":360,"o":"m 130 991 l 130 829 l -55 829 l -55 991 l 130 991 m 416 991 l 416 829 l 229 829 l 229 991 l 416 991 "},"̈":{"x_min":-412.5625,"x_max":59.703125,"ha":0,"o":"m -226 991 l -226 829 l -412 829 l -412 991 l -226 991 m 59 991 l 59 829 l -127 829 l -127 991 l 59 991 "},"Y":{"x_min":-11.109375,"x_max":938.96875,"ha":926,"o":"m -11 991 l 233 991 l 465 600 l 695 991 l 938 991 l 570 380 l 570 0 l 352 0 l 352 386 l -11 991 "},"E":{"x_min":95.84375,"x_max":848.671875,"ha":900,"o":"m 837 991 l 837 808 l 313 808 l 313 595 l 794 595 l 794 426 l 313 426 l 313 183 l 848 183 l 848 0 l 95 0 l 95 991 l 837 991 "},"Ô":{"x_min":52.78125,"x_max":1027.859375,"ha":1081,"o":"m 632 1277 l 784 1080 l 622 1080 l 536 1193 l 447 1080 l 297 1080 l 451 1277 l 632 1277 m 270 491 q 285 370 270 429 q 331 263 300 311 q 415 188 363 216 q 540 159 466 159 q 665 188 613 159 q 748 263 716 216 q 795 370 780 311 q 809 491 809 429 q 795 618 809 556 q 748 727 780 679 q 665 803 716 775 q 540 832 613 832 q 415 803 466 832 q 331 727 363 775 q 285 618 300 679 q 270 491 270 556 m 52 491 q 86 697 52 602 q 181 863 119 793 q 335 975 244 934 q 540 1015 426 1015 q 745 975 655 1015 q 898 863 836 934 q 994 697 961 793 q 1027 491 1027 602 q 994 289 1027 383 q 898 126 961 195 q 745 17 836 56 q 540 -22 655 -22 q 335 17 426 -22 q 181 126 244 56 q 86 289 119 195 q 52 491 52 383 "},"Ï":{"x_min":-30.5625,"x_max":441.703125,"ha":410,"o":"m 155 1265 l 155 1102 l -30 1102 l -30 1265 l 155 1265 m 441 1265 l 441 1102 l 254 1102 l 254 1265 l 441 1265 m 313 991 l 313 0 l 95 0 l 95 991 l 313 991 "},"‹":{"x_min":58.34375,"x_max":276.40625,"ha":335,"o":"m 58 472 l 276 643 l 276 476 l 151 377 l 276 277 l 276 111 l 58 284 l 58 472 "},"±":{"x_min":66.671875,"x_max":768.109375,"ha":833,"o":"m 768 148 l 768 0 l 66 0 l 66 148 l 768 148 m 768 520 l 768 372 l 491 372 l 491 190 l 343 190 l 343 372 l 66 372 l 66 520 l 343 520 l 343 702 l 491 702 l 491 520 l 768 520 "},"ì":{"x_min":-65.28125,"x_max":284.75,"ha":358,"o":"m 151 1004 l 284 807 l 147 807 l -65 1004 l 151 1004 m 277 718 l 277 0 l 80 0 l 80 718 l 277 718 "},"|":{"x_min":80.5625,"x_max":229.1875,"ha":310,"o":"m 229 1091 l 229 -295 l 80 -295 l 80 1091 l 229 1091 "},"§":{"x_min":13.890625,"x_max":758.390625,"ha":772,"o":"m 513 747 q 482 832 513 798 q 395 866 451 866 q 324 843 358 866 q 290 777 290 819 q 326 710 291 738 q 413 655 361 682 q 526 602 465 629 q 638 541 587 576 q 724 459 690 505 q 758 347 758 412 q 719 222 758 276 q 613 144 680 168 q 672 72 654 113 q 690 -18 690 30 q 663 -120 690 -76 q 595 -193 637 -163 q 500 -236 552 -222 q 394 -251 447 -251 q 270 -235 327 -251 q 171 -186 213 -219 q 105 -103 129 -154 q 81 16 81 -52 l 254 16 q 292 -72 256 -43 q 390 -102 327 -102 q 463 -79 433 -102 q 493 -11 493 -56 q 459 58 494 29 q 372 113 425 87 q 256 167 319 140 q 140 230 194 194 q 50 315 86 266 q 13 431 13 363 q 52 558 13 506 q 162 634 91 609 q 118 698 133 666 q 102 775 102 730 q 128 878 102 833 q 195 954 154 923 q 288 1000 236 984 q 393 1015 340 1015 q 507 998 454 1015 q 600 945 561 980 q 663 861 640 911 q 686 747 686 812 l 513 747 l 513 747 m 294 527 q 277 537 286 531 q 256 541 268 543 q 228 531 241 540 q 206 509 215 522 q 191 479 197 495 q 186 448 186 463 q 196 411 186 429 q 230 380 206 393 l 480 244 q 498 238 487 241 q 522 234 509 234 q 547 242 536 234 q 568 261 559 250 q 581 286 576 273 q 586 311 586 300 q 567 363 586 343 q 523 398 548 384 l 294 527 l 294 527 "},"q":{"x_min":44.453125,"x_max":775.0625,"ha":849,"o":"m 241 358 q 250 274 241 315 q 278 200 258 233 q 331 148 298 168 q 412 129 363 129 q 493 147 461 129 q 546 197 526 166 q 575 270 566 229 q 584 355 584 311 q 575 438 584 397 q 547 513 566 480 q 495 568 527 547 q 416 588 462 588 q 334 569 368 588 q 280 517 301 550 q 250 443 259 484 q 241 358 241 402 m 577 -251 l 577 90 l 575 90 q 477 6 540 31 q 348 -18 415 -18 q 245 0 298 -18 q 147 63 191 19 q 73 178 102 106 q 44 354 44 250 q 63 497 44 427 q 123 620 83 566 q 224 705 163 673 q 366 737 284 737 q 492 711 433 737 q 584 626 551 686 l 587 626 l 587 718 l 775 718 l 775 -251 l 577 -251 "},"b":{"x_min":75,"x_max":798.671875,"ha":849,"o":"m 601 358 q 591 445 601 404 q 561 519 581 487 q 509 570 540 551 q 433 588 477 588 q 358 570 390 588 q 305 519 326 551 q 275 445 284 487 q 265 358 265 404 q 275 272 265 313 q 305 198 284 230 q 358 147 326 166 q 433 129 390 129 q 509 147 477 129 q 561 198 540 166 q 591 272 581 230 q 601 358 601 313 m 272 991 l 272 630 l 275 630 q 372 711 311 686 q 501 737 434 737 q 608 715 555 737 q 703 647 661 693 q 772 529 745 601 q 798 359 798 458 q 772 189 798 261 q 703 72 745 118 q 608 4 661 26 q 501 -18 555 -18 q 359 6 422 -18 q 265 91 297 31 l 262 91 l 262 0 l 75 0 l 75 991 l 272 991 "},"̃":{"x_min":-430.609375,"x_max":77.75,"ha":0,"o":"m 77 991 q 61 940 70 968 q 35 888 52 912 q -9 849 18 865 q -77 833 -36 833 q -137 841 -109 833 q -191 857 -165 848 q -241 873 -218 866 q -288 880 -265 880 q -328 864 -316 880 q -347 822 -340 848 l -430 822 q -412 882 -423 852 q -382 936 -401 912 q -332 976 -362 961 q -256 991 -302 991 q -211 984 -233 991 q -168 968 -190 976 q -122 950 -145 958 q -76 943 -100 943 q -30 957 -44 943 q -18 991 -16 972 l 77 991 l 77 991 "},"ﬂ":{"x_min":0,"x_max":768.109375,"ha":849,"o":"m 0 586 l 0 718 l 118 718 l 118 773 q 177 930 118 869 q 358 991 237 991 q 411 989 384 991 q 462 986 437 987 l 462 838 q 390 843 427 843 q 332 824 350 843 q 315 761 315 805 l 315 718 l 451 718 l 451 586 l 315 586 l 315 0 l 118 0 l 118 586 l 0 586 m 768 991 l 768 0 l 570 0 l 570 991 l 768 991 "},"®":{"x_min":22.21875,"x_max":1088.96875,"ha":1111,"o":"m 566 545 q 648 559 616 545 q 680 626 680 573 q 669 663 680 650 q 641 685 658 677 q 602 695 623 693 q 561 698 580 698 l 463 698 l 463 545 l 566 545 m 568 788 q 736 750 677 788 q 795 616 795 711 q 784 547 795 576 q 751 501 772 519 q 702 473 730 483 q 643 461 675 463 l 798 206 l 677 206 l 536 455 l 463 455 l 463 206 l 348 206 l 348 788 l 568 788 m 163 497 q 194 333 163 408 q 277 203 225 258 q 402 118 330 148 q 555 87 473 87 q 707 118 636 87 q 832 203 779 148 q 916 333 884 258 q 947 497 947 408 q 916 660 947 586 q 832 788 884 734 q 707 873 779 843 q 555 904 636 904 q 402 873 473 904 q 277 788 330 843 q 194 660 225 734 q 163 497 163 586 m 22 497 q 65 711 22 615 q 183 874 109 807 q 353 978 256 941 q 555 1015 450 1015 q 757 978 661 1015 q 927 874 854 941 q 1045 711 1001 807 q 1088 497 1088 615 q 1045 281 1088 377 q 927 118 1001 186 q 757 13 854 50 q 555 -22 661 -22 q 353 13 450 -22 q 183 118 256 50 q 65 281 109 186 q 22 497 22 377 "},"L":{"x_min":95.84375,"x_max":797.28125,"ha":824,"o":"m 313 991 l 313 183 l 797 183 l 797 0 l 95 0 l 95 991 l 313 991 "}," ":{"x_min":0,"x_max":0,"ha":386},"∑":{"x_min":29.171875,"x_max":962.578125,"ha":990,"o":"m 29 -297 l 29 -272 l 483 336 l 29 937 l 29 962 l 895 962 l 913 734 l 887 734 q 834 868 876 827 q 718 908 793 908 l 216 908 l 597 394 l 170 -177 l 725 -177 q 829 -159 776 -177 q 893 -114 868 -147 q 936 -11 919 -81 l 962 -16 l 919 -297 l 29 -297 "},"À":{"x_min":-8.328125,"x_max":961.1875,"ha":951,"o":"m 447 1277 l 580 1080 l 443 1080 l 229 1277 l 447 1277 m 602 383 l 477 747 l 475 747 l 345 383 l 602 383 m 590 991 l 961 0 l 734 0 l 659 220 l 288 220 l 211 0 l -8 0 l 366 991 l 590 991 "},"+":{"x_min":66.671875,"x_max":768.109375,"ha":833,"o":"m 768 425 l 768 276 l 491 276 l 491 0 l 343 0 l 343 276 l 66 276 l 66 425 l 343 425 l 343 701 l 491 701 l 491 425 l 768 425 "},"̊":{"x_min":-347.28125,"x_max":-6.96875,"ha":0,"o":"m -347 911 q -334 977 -347 947 q -297 1031 -320 1008 q -243 1067 -275 1054 q -177 1080 -212 1080 q -111 1067 -141 1080 q -56 1031 -80 1054 q -20 977 -33 1008 q -6 911 -6 947 q -20 845 -6 876 q -56 791 -33 813 q -111 754 -80 768 q -177 741 -141 741 q -243 754 -212 741 q -297 791 -275 768 q -334 845 -320 813 q -347 911 -347 876 m -265 911 q -241 842 -265 870 q -177 813 -218 813 q -113 842 -137 813 q -88 911 -88 870 q -113 979 -88 951 q -177 1008 -137 1008 q -241 979 -218 1008 q -265 911 -265 951 "},"½":{"x_min":33.34375,"x_max":1175.09375,"ha":1235,"o":"m 707 370 q 768 545 705 477 q 958 612 830 612 q 1041 600 1002 612 q 1110 565 1080 588 q 1157 506 1140 541 q 1175 425 1175 470 q 1142 318 1175 358 q 1062 248 1109 279 q 965 188 1015 218 q 879 111 915 158 l 1169 111 l 1169 0 l 705 0 q 720 95 705 55 q 762 165 736 134 q 824 222 788 197 q 900 272 859 247 q 943 300 920 286 q 986 330 966 313 q 1020 368 1007 347 q 1033 415 1033 388 q 1010 476 1033 451 q 948 501 987 501 q 900 488 919 501 q 868 456 880 476 q 852 414 857 437 q 848 370 847 391 l 707 370 l 707 370 m 186 379 l 186 759 l 33 759 l 33 863 q 96 868 66 862 q 150 886 126 873 q 190 922 175 900 q 211 979 206 945 l 327 979 l 327 379 l 186 379 m 904 1002 l 331 -29 l 211 -29 l 786 1002 l 904 1002 "},"Ë":{"x_min":95.84375,"x_max":848.671875,"ha":900,"o":"m 401 1265 l 401 1102 l 213 1102 l 213 1265 l 401 1265 m 687 1265 l 687 1102 l 500 1102 l 500 1265 l 687 1265 m 837 991 l 837 808 l 313 808 l 313 595 l 794 595 l 794 426 l 313 426 l 313 183 l 848 183 l 848 0 l 95 0 l 95 991 l 837 991 "},"'":{"x_min":119.453125,"x_max":268.078125,"ha":386,"o":"m 268 991 l 268 545 l 119 545 l 119 991 l 268 991 "},"Š":{"x_min":33.296875,"x_max":868.125,"ha":901,"o":"m 361 1080 l 206 1277 l 362 1277 l 451 1165 l 541 1277 l 694 1277 l 541 1080 l 361 1080 m 244 329 q 262 244 244 279 q 310 188 280 209 q 380 156 340 166 q 463 145 420 145 q 526 150 493 145 q 588 169 559 155 q 637 207 618 183 q 657 269 657 231 q 631 334 657 309 q 563 376 605 359 q 469 405 522 393 q 362 433 416 418 q 254 467 306 447 q 159 519 201 487 q 92 599 118 551 q 66 715 66 647 q 99 847 66 791 q 184 941 131 904 q 304 997 237 979 q 437 1015 370 1015 q 586 998 515 1015 q 713 941 658 980 q 802 842 769 902 q 834 695 834 782 l 623 695 q 604 769 620 740 q 562 815 588 798 q 502 838 536 832 q 427 845 468 845 q 375 840 401 845 q 327 820 348 834 q 291 786 305 807 q 277 733 277 765 q 288 686 277 704 q 332 652 300 668 q 422 622 365 637 q 573 583 480 607 q 650 563 601 577 q 748 516 700 548 q 832 431 797 484 q 868 294 868 377 q 841 168 868 226 q 763 67 815 109 q 634 1 711 25 q 455 -22 556 -22 q 296 -2 373 -22 q 160 61 219 18 q 66 170 101 104 q 33 329 31 237 l 244 329 l 244 329 "},"˛":{"x_min":12.5,"x_max":347.25,"ha":360,"o":"m 347 -206 q 256 -280 305 -259 q 161 -301 208 -301 q 123 -298 148 -301 q 73 -283 98 -295 q 30 -245 48 -270 q 12 -176 12 -220 q 15 -150 12 -166 q 33 -110 18 -133 q 80 -58 48 -87 q 170 4 112 -29 l 261 4 q 170 -95 194 -55 q 145 -170 145 -134 q 162 -204 145 -191 q 200 -218 179 -218 q 241 -210 222 -218 q 280 -176 261 -202 l 347 -206 l 347 -206 "},"ð":{"x_min":52.78125,"x_max":796.015625,"ha":849,"o":"m 333 898 q 273 937 302 920 q 216 968 244 954 l 344 1063 q 481 972 419 1022 l 652 1058 l 725 976 l 566 897 q 738 665 679 788 q 795 379 798 541 q 769 220 795 293 q 694 94 743 147 q 577 11 645 41 q 423 -18 508 -18 q 270 8 338 -18 q 154 82 202 34 q 79 197 105 130 q 52 343 52 263 q 71 472 52 408 q 129 587 90 536 q 228 670 168 638 q 372 702 288 702 q 461 691 412 702 q 559 647 511 680 l 562 647 q 496 749 537 705 q 420 823 455 793 l 265 745 l 184 823 l 333 898 l 333 898 m 423 129 q 507 148 473 129 q 561 200 541 168 q 590 274 581 233 q 598 358 598 315 q 588 435 598 397 q 558 503 579 473 q 504 552 537 533 q 422 570 470 570 q 341 552 375 570 q 288 502 308 533 q 259 434 268 472 q 250 358 250 395 q 258 274 250 315 q 286 200 266 233 q 340 148 306 168 q 423 129 373 129 "},"ı":{"x_min":80.5625,"x_max":277.796875,"ha":358,"o":"m 277 718 l 277 0 l 80 0 l 80 718 l 277 718 "},"ä":{"x_min":44.453125,"x_max":744.5,"ha":797,"o":"m 350 991 l 350 829 l 162 829 l 162 991 l 350 991 m 636 991 l 636 829 l 448 829 l 448 991 l 636 991 m 66 497 q 101 612 70 566 q 179 686 131 658 q 285 725 226 713 q 404 737 344 737 q 513 729 458 737 q 615 700 569 722 q 690 638 661 677 q 719 533 719 598 l 719 159 q 725 66 719 111 q 744 0 730 22 l 544 0 q 535 34 538 16 q 530 69 531 51 q 419 1 483 20 q 288 -18 355 -18 q 193 -5 237 -18 q 115 33 148 6 q 63 100 81 59 q 44 195 44 140 q 65 296 44 256 q 121 359 87 336 q 199 395 155 383 q 287 413 243 406 q 375 425 331 420 q 451 437 418 429 q 504 461 484 445 q 522 508 523 477 q 511 559 522 540 q 484 588 501 577 q 443 602 466 598 q 394 605 420 605 q 302 580 336 605 q 263 497 269 555 l 66 497 l 66 497 m 522 351 q 491 334 509 340 q 450 323 472 327 q 405 316 429 319 q 358 309 381 313 q 314 298 336 305 q 277 279 293 291 q 251 250 261 268 q 241 204 241 231 q 251 159 241 177 q 277 131 261 141 q 316 116 294 120 q 362 112 338 112 q 452 131 420 112 q 500 178 484 151 q 518 233 515 205 q 522 277 522 261 l 522 351 l 522 351 "},"¹":{"x_min":106.953125,"x_max":401.421875,"ha":544,"o":"m 259 379 l 259 759 l 106 759 l 106 863 q 170 868 140 862 q 224 886 200 873 q 264 922 248 900 q 284 979 280 945 l 401 979 l 401 379 l 259 379 "},"£":{"x_min":29.171875,"x_max":787.5625,"ha":772,"o":"m 36 105 q 93 147 65 123 q 143 201 122 172 q 179 264 165 230 q 193 336 193 298 q 185 382 193 359 q 166 429 177 405 l 29 429 l 29 547 l 118 547 q 76 625 97 573 q 55 738 55 676 q 78 844 55 794 q 145 932 101 894 q 256 993 190 970 q 411 1015 323 1015 q 659 926 570 1015 q 748 668 748 837 l 561 668 q 555 720 559 688 q 536 780 551 751 q 492 831 522 809 q 409 852 462 852 q 310 818 347 852 q 273 725 273 783 q 275 693 273 708 q 281 657 276 677 q 297 611 286 637 q 330 547 309 584 l 515 547 l 515 429 l 369 429 q 378 387 376 408 q 380 343 380 366 q 346 231 380 277 q 266 148 312 184 l 269 145 q 323 172 302 166 q 363 177 344 177 q 418 172 391 177 q 473 162 445 168 q 527 150 501 155 q 581 145 554 145 q 638 155 609 145 q 704 205 666 165 l 787 65 q 680 -2 737 16 q 570 -22 623 -22 q 483 -15 518 -22 q 419 1 448 -8 q 358 20 388 12 q 281 29 327 29 q 203 18 244 29 q 122 -22 162 8 l 36 105 l 36 105 "},"W":{"x_min":4.171875,"x_max":1307.046875,"ha":1311,"o":"m 823 0 l 655 675 l 652 675 l 487 0 l 266 0 l 4 991 l 222 991 l 379 316 l 381 316 l 554 991 l 758 991 l 927 308 l 930 308 l 1093 991 l 1307 991 l 1040 0 l 823 0 "},"v":{"x_min":6.9375,"x_max":715.328125,"ha":722,"o":"m 252 0 l 6 718 l 213 718 l 365 227 l 368 227 l 519 718 l 715 718 l 472 0 l 252 0 "},">":{"x_min":63.890625,"x_max":769.5,"ha":833,"o":"m 573 351 l 63 554 l 63 713 l 769 433 l 769 269 l 63 -9 l 63 148 l 573 351 "},"û":{"x_min":75,"x_max":748.671875,"ha":824,"o":"m 502 1004 l 655 807 l 493 807 l 406 919 l 318 807 l 168 807 l 322 1004 l 502 1004 m 561 0 l 561 100 l 556 100 q 459 9 519 37 q 337 -18 400 -18 q 207 2 258 -18 q 127 61 156 23 q 86 154 98 100 q 75 276 75 209 l 75 718 l 272 718 l 272 312 q 300 179 272 223 q 398 136 327 136 q 515 184 479 136 q 551 341 551 231 l 551 718 l 748 718 l 748 0 l 561 0 "},"Ð":{"x_min":4.171875,"x_max":973.6875,"ha":1029,"o":"m 536 593 l 536 430 l 313 430 l 313 183 l 508 183 q 600 198 555 183 q 679 249 644 213 q 734 341 713 284 q 755 480 755 398 q 741 616 755 555 q 693 719 726 676 q 604 785 659 762 q 469 808 550 808 l 313 808 l 313 593 l 536 593 m 4 431 l 4 593 l 95 593 l 95 991 l 523 991 q 702 961 619 991 q 845 869 784 930 q 939 716 905 808 q 973 501 973 625 q 945 301 973 393 q 861 143 918 209 q 721 38 805 76 q 523 0 637 0 l 95 0 l 95 431 l 4 431 "},"r":{"x_min":75,"x_max":537.546875,"ha":540,"o":"m 262 718 l 262 584 l 265 584 q 302 646 279 618 q 356 695 326 675 q 422 726 387 715 q 494 737 456 737 q 537 730 513 737 l 537 547 q 504 552 523 550 q 466 554 484 554 q 375 536 412 554 q 314 486 337 518 q 281 413 291 455 q 272 323 272 372 l 272 0 l 75 0 l 75 718 l 262 718 "},"x":{"x_min":0,"x_max":745.890625,"ha":746,"o":"m 22 718 l 247 718 l 373 530 l 498 718 l 716 718 l 480 381 l 745 0 l 520 0 l 370 226 l 220 0 l 0 0 l 258 377 l 22 718 "},"è":{"x_min":40.28125,"x_max":756.84375,"ha":797,"o":"m 370 1004 l 504 807 l 366 807 l 152 1004 l 370 1004 m 558 436 q 509 550 544 511 q 401 588 473 588 q 322 572 354 588 q 272 533 291 556 q 246 483 254 509 q 237 436 238 456 l 558 436 l 558 436 m 237 311 q 286 172 241 215 q 413 129 330 129 q 516 159 473 129 q 569 222 559 188 l 743 222 q 615 37 701 93 q 406 -18 529 -18 q 254 9 322 -18 q 138 86 186 36 q 65 205 91 136 q 40 358 40 275 q 66 508 40 438 q 141 628 93 577 q 257 708 190 679 q 406 737 325 737 q 566 702 498 737 q 678 606 634 666 q 741 470 722 547 q 755 311 761 394 l 237 311 l 237 311 "},"Ø":{"x_min":47.21875,"x_max":1033.421875,"ha":1081,"o":"m 362 227 q 438 177 394 195 q 540 159 481 159 q 665 188 613 159 q 748 263 716 216 q 795 370 780 311 q 809 491 809 429 q 800 589 809 541 q 772 680 791 637 l 362 227 l 362 227 m 720 761 q 644 812 688 793 q 540 832 600 832 q 415 803 466 832 q 331 727 363 775 q 285 618 300 679 q 270 491 270 556 q 279 395 270 443 q 309 304 288 347 l 720 761 l 720 761 m 166 145 q 80 304 108 216 q 52 491 52 391 q 86 697 52 602 q 181 863 119 793 q 335 975 244 934 q 540 1015 426 1015 q 714 987 636 1015 q 852 908 793 959 l 963 1032 l 1033 970 l 916 841 q 999 683 970 770 q 1027 491 1027 595 q 994 289 1027 383 q 898 126 961 195 q 745 17 836 56 q 540 -22 655 -22 q 366 5 444 -22 q 230 81 288 33 l 115 -44 l 47 13 l 166 145 l 166 145 "},"÷":{"x_min":66.671875,"x_max":768.109375,"ha":833,"o":"m 300 62 q 309 108 300 87 q 335 145 319 129 q 372 170 351 161 q 418 179 394 179 q 462 170 441 179 q 499 145 483 161 q 525 108 515 129 q 534 62 534 87 q 525 20 534 41 q 500 -16 515 0 q 463 -43 484 -33 q 419 -54 443 -54 q 372 -44 394 -54 q 335 -18 351 -34 q 309 18 319 -2 q 300 62 300 40 m 300 638 q 335 722 300 688 q 418 757 370 757 q 462 747 441 757 q 499 722 483 738 q 525 685 515 707 q 534 638 534 663 q 525 595 534 616 q 500 558 515 575 q 463 531 484 541 q 419 522 443 522 q 372 531 394 522 q 335 556 351 540 q 309 593 319 572 q 300 638 300 615 m 768 425 l 768 276 l 66 276 l 66 425 l 768 425 "},"h":{"x_min":75,"x_max":748.671875,"ha":824,"o":"m 272 991 l 272 618 l 276 618 q 372 709 313 680 q 486 737 430 737 q 616 716 565 737 q 695 656 666 694 q 736 563 725 618 q 748 441 748 508 l 748 0 l 551 0 l 551 405 q 523 538 551 494 q 425 581 495 581 q 308 534 344 581 q 272 376 272 486 l 272 0 l 75 0 l 75 991 l 272 991 "},".":{"x_min":83.34375,"x_max":301.40625,"ha":386,"o":"m 301 213 l 301 0 l 83 0 l 83 213 l 301 213 "},"f":{"x_min":0,"x_max":462.53125,"ha":463,"o":"m 0 586 l 0 718 l 118 718 l 118 773 q 177 930 118 869 q 358 991 237 991 q 411 989 384 991 q 462 986 437 987 l 462 838 q 390 843 427 843 q 332 824 350 843 q 315 761 315 805 l 315 718 l 451 718 l 451 586 l 315 586 l 315 0 l 118 0 l 118 586 l 0 586 "},"̇":{"x_min":-270.875,"x_max":-83.359375,"ha":0,"o":"m -83 991 l -83 829 l -270 829 l -270 991 l -83 991 "},"“":{"x_min":74.875,"x_max":568.09375,"ha":643,"o":"m 75 545 l 75 758 q 88 844 73 804 q 129 915 102 884 q 192 966 155 945 q 272 991 229 986 l 272 900 q 200 846 219 882 q 180 759 180 811 l 272 759 l 272 545 l 75 545 m 370 545 l 370 758 q 384 844 369 804 q 425 915 398 884 q 488 966 451 945 q 568 991 525 986 l 568 900 q 495 846 515 882 q 476 759 476 811 l 568 759 l 568 545 l 370 545 "},"A":{"x_min":-8.328125,"x_max":961.1875,"ha":951,"o":"m 602 383 l 477 747 l 475 747 l 345 383 l 602 383 m 590 991 l 961 0 l 734 0 l 659 220 l 288 220 l 211 0 l -8 0 l 366 991 l 590 991 "},"O":{"x_min":52.78125,"x_max":1027.859375,"ha":1081,"o":"m 270 491 q 285 370 270 429 q 331 263 300 311 q 415 188 363 216 q 540 159 466 159 q 665 188 613 159 q 748 263 716 216 q 795 370 780 311 q 809 491 809 429 q 795 618 809 556 q 748 727 780 679 q 665 803 716 775 q 540 832 613 832 q 415 803 466 832 q 331 727 363 775 q 285 618 300 679 q 270 491 270 556 m 52 491 q 86 697 52 602 q 181 863 119 793 q 335 975 244 934 q 540 1015 426 1015 q 745 975 655 1015 q 898 863 836 934 q 994 697 961 793 q 1027 491 1027 602 q 994 289 1027 383 q 898 126 961 195 q 745 17 836 56 q 540 -22 655 -22 q 335 17 426 -22 q 181 126 244 56 q 86 289 119 195 q 52 491 52 383 "},"π":{"x_min":8.328125,"x_max":675.046875,"ha":701,"o":"m 673 522 l 516 522 l 502 316 q 498 223 498 262 q 520 108 498 129 q 573 87 544 87 q 651 169 638 87 l 675 169 q 525 -16 651 -16 q 429 18 465 -16 q 393 126 393 54 q 396 200 393 150 q 406 326 400 250 l 425 522 l 281 522 q 265 307 275 395 q 247 161 256 219 q 202 13 227 47 q 137 -16 180 -16 q 85 0 106 -16 q 63 47 63 18 q 100 125 63 76 q 146 197 126 161 q 180 275 166 234 q 204 375 194 313 q 220 522 213 437 l 173 522 q 88 497 118 522 q 33 426 59 472 l 8 426 q 59 545 29 498 q 123 607 91 593 q 240 620 152 620 l 673 620 l 673 522 "},"‘":{"x_min":94.328125,"x_max":291.6875,"ha":386,"o":"m 94 545 l 94 758 q 107 844 93 804 q 148 915 122 884 q 211 966 175 945 q 291 991 248 986 l 291 900 q 219 846 238 882 q 200 759 200 811 l 291 759 l 291 545 l 94 545 "},"3":{"x_min":24.921875,"x_max":747.28125,"ha":772,"o":"m 316 579 q 384 579 348 576 q 452 595 420 581 q 503 633 483 608 q 523 700 523 658 q 481 795 523 762 q 386 829 440 829 q 272 779 311 829 q 236 655 234 730 l 48 655 q 75 792 51 730 q 143 898 100 854 q 248 967 187 943 q 384 991 309 991 q 501 974 443 991 q 606 922 559 957 q 682 837 652 887 q 711 722 711 787 q 677 597 711 651 q 575 523 643 543 l 575 520 q 701 443 655 502 q 747 300 747 383 q 717 163 747 223 q 637 63 687 104 q 522 2 587 23 q 386 -18 456 -18 q 236 5 304 -18 q 122 74 169 29 q 49 184 75 119 q 25 334 23 250 l 212 334 q 225 260 213 295 q 256 199 236 225 q 309 158 277 173 q 383 143 340 143 q 495 184 450 143 q 541 295 541 225 q 520 380 541 351 q 465 422 498 409 q 392 438 431 436 q 316 440 352 440 l 316 579 l 316 579 "},"9":{"x_min":29.171875,"x_max":743.109375,"ha":772,"o":"m 375 468 q 444 482 415 468 q 493 522 473 497 q 522 579 512 547 q 531 648 531 612 q 521 714 531 682 q 491 772 511 747 q 441 813 470 798 q 375 829 412 829 q 312 813 340 829 q 265 773 284 798 q 236 716 245 748 q 226 651 226 684 q 235 584 226 616 q 262 525 244 551 q 309 484 280 500 q 375 468 337 468 m 233 250 q 277 165 243 201 q 363 129 312 129 q 452 160 418 129 q 508 236 487 191 q 538 333 529 281 q 550 425 547 384 l 547 427 q 452 344 506 369 q 327 319 398 319 q 205 346 265 319 q 104 419 145 373 q 47 520 65 463 q 29 636 29 577 q 53 775 29 711 q 122 888 77 840 q 230 963 168 936 q 369 991 293 991 q 552 947 480 991 q 666 832 623 904 q 726 670 709 761 q 743 488 743 580 q 722 308 743 398 q 655 145 701 218 q 537 27 609 72 q 361 -18 465 -18 q 244 0 298 -18 q 148 51 190 16 q 80 136 106 86 q 45 250 54 186 l 233 250 l 233 250 "},"l":{"x_min":80.5625,"x_max":277.796875,"ha":358,"o":"m 277 991 l 277 0 l 80 0 l 80 991 l 277 991 "},"4":{"x_min":22.21875,"x_max":750.0625,"ha":772,"o":"m 429 725 l 177 387 l 433 387 l 433 725 l 429 725 m 22 225 l 22 405 l 444 972 l 620 972 l 620 387 l 750 387 l 750 225 l 620 225 l 620 0 l 433 0 l 433 225 l 22 225 "},"Ü":{"x_min":91.671875,"x_max":937.578125,"ha":1029,"o":"m 465 1265 l 465 1102 l 277 1102 l 277 1265 l 465 1265 m 751 1265 l 751 1102 l 563 1102 l 563 1265 l 751 1265 m 937 375 q 825 75 937 173 q 513 -22 712 -22 q 202 75 312 -22 q 91 375 91 172 l 91 991 l 309 991 l 309 375 q 316 295 309 334 q 345 227 323 256 q 407 178 368 197 q 513 159 447 159 q 675 211 630 159 q 719 375 719 263 l 719 991 l 937 991 l 937 375 l 937 375 "},"à":{"x_min":44.453125,"x_max":744.5,"ha":797,"o":"m 370 1004 l 504 807 l 366 807 l 152 1004 l 370 1004 m 66 497 q 101 612 70 566 q 179 686 131 658 q 285 725 226 713 q 404 737 344 737 q 513 729 458 737 q 615 700 569 722 q 690 638 661 677 q 719 533 719 598 l 719 159 q 725 66 719 111 q 744 0 730 22 l 544 0 q 535 34 538 16 q 530 69 531 51 q 419 1 483 20 q 288 -18 355 -18 q 193 -5 237 -18 q 115 33 148 6 q 63 100 81 59 q 44 195 44 140 q 65 296 44 256 q 121 359 87 336 q 199 395 155 383 q 287 413 243 406 q 375 425 331 420 q 451 437 418 429 q 504 461 484 445 q 522 508 523 477 q 511 559 522 540 q 484 588 501 577 q 443 602 466 598 q 394 605 420 605 q 302 580 336 605 q 263 497 269 555 l 66 497 l 66 497 m 522 351 q 491 334 509 340 q 450 323 472 327 q 405 316 429 319 q 358 309 381 313 q 314 298 336 305 q 277 279 293 291 q 251 250 261 268 q 241 204 241 231 q 251 159 241 177 q 277 131 261 141 q 316 116 294 120 q 362 112 338 112 q 452 131 420 112 q 500 178 484 151 q 518 233 515 205 q 522 277 522 261 l 522 351 l 522 351 "},"ó":{"x_min":52.78125,"x_max":795.890625,"ha":849,"o":"m 319 807 l 452 1004 l 670 1004 l 456 807 l 319 807 m 250 358 q 258 274 250 315 q 286 200 266 233 q 340 148 306 168 q 423 129 373 129 q 507 148 473 129 q 561 200 541 168 q 590 274 581 233 q 598 358 598 315 q 590 443 598 401 q 561 516 581 484 q 507 568 541 548 q 423 588 473 588 q 340 568 373 588 q 286 516 306 548 q 258 443 266 484 q 250 358 250 401 m 52 358 q 79 514 52 444 q 154 634 105 584 q 270 710 202 683 q 423 737 338 737 q 577 710 508 737 q 694 634 645 683 q 769 514 743 584 q 795 358 795 444 q 769 202 795 272 q 694 84 743 133 q 577 8 645 34 q 423 -18 508 -18 q 270 8 338 -18 q 154 84 202 34 q 79 202 105 133 q 52 358 52 272 "},"\r":{"x_min":0,"x_max":0,"ha":386}}}
